M48
; DRILL file {KiCad 9.0.8} date 2026-03-25T08:29:40+0100
; FORMAT={-:-/ absolute / metric / decimal}
; #@! TF.CreationDate,2026-03-25T08:29:40+01:00
; #@! TF.GenerationSoftware,Kicad,Pcbnew,9.0.8
; #@! TF.FileFunction,Plated,1,2,PTH
FMAT,2
METRIC
; #@! TA.AperFunction,Plated,PTH,ViaDrill
T1C1.000
; #@! TA.AperFunction,Plated,PTH,ComponentDrill
T2C1.000
; #@! TA.AperFunction,Plated,PTH,ComponentDrill
T3C1.800
; #@! TA.AperFunction,Plated,PTH,ComponentDrill
T4C2.500
%
G90
G05
T1
X71.321Y-100.9
X71.575Y-111.822
X72.591Y-88.962
X81.989Y-77.532
X84.783Y-110.663
X86.561Y-89.79
X86.815Y-100.204
X88.847Y-59.752
X91.133Y-110.663
X92.149Y-115.886
X93.165Y-101.662
X96.975Y-77.532
X97.737Y-126.3
X98.753Y-105.98
X99.007Y-115.886
X103.325Y-104.202
X105.357Y-105.726
X106.373Y-115.886
X107.135Y-103.694
X107.643Y-66.864
X112.215Y-74.484
X112.215Y-108.012
X112.723Y-126.3
X113.739Y-115.886
X115.263Y-110.907
X117.041Y-99.376
X118.819Y-84.644
X119.327Y-76.77
X119.581Y-88.2
X119.581Y-97.09
X121.613Y-119.95
X122.629Y-67.372
X123.177Y-116.394
X123.177Y-113.854
X124.153Y-106.996
X124.407Y-95.566
X124.661Y-98.106
X126.185Y-88.2
X126.185Y-76.77
X126.566Y-105.599
X127.709Y-78.802
X128.217Y-93.788
X128.471Y-83.374
X129.995Y-85.914
X131.519Y-81.088
X133.043Y-103.44
X135.583Y-71.69
X135.583Y-82.104
X135.672Y-102.17
X136.853Y-114.616
X139.139Y-91.756
X139.901Y-61.276
X141.933Y-88.454
X142.022Y-118.934
X144.727Y-121.982
X147.267Y-69.658
X147.356Y-100.138
X150.569Y-92.01
X151.331Y-61.784
X153.109Y-83.882
X153.198Y-114.362
X154.887Y-70.42
X154.976Y-100.9
X155.903Y-83.12
X156.157Y-115.124
X156.919Y-67.118
X157.173Y-97.598
X158.951Y-79.31
X159.04Y-109.79
X164.031Y-68.134
X164.031Y-80.072
X164.285Y-110.806
X164.539Y-98.868
T2
X108.405Y-78.294
X110.945Y-78.294
X113.485Y-78.294
X116.025Y-78.294
X128.725Y-111.314
X128.725Y-113.854
X128.725Y-116.394
X128.725Y-118.934
X128.725Y-121.474
X134.059Y-89.216
X134.059Y-91.756
X134.059Y-94.296
T3
X56.843Y-55.555
X56.843Y-126.955
T4
X72.409Y-58.482
X76.909Y-58.482
X81.409Y-58.482
M30
