M48
; DRILL file {KiCad 9.0.8} date 2026-03-27T09:22:14+0100
; FORMAT={-:-/ absolute / metric / decimal}
; #@! TF.CreationDate,2026-03-27T09:22:14+01:00
; #@! TF.GenerationSoftware,Kicad,Pcbnew,9.0.8
; #@! TF.FileFunction,Plated,1,4,PTH
FMAT,2
METRIC
; #@! TA.AperFunction,Plated,PTH,ViaDrill
T1C0.400
; #@! TA.AperFunction,Plated,PTH,ComponentDrill
T2C1.000
; #@! TA.AperFunction,Plated,PTH,ComponentDrill
T3C1.800
; #@! TA.AperFunction,Plated,PTH,ComponentDrill
T4C2.500
%
G90
G05
T1
X71.459Y-46.491
X72.591Y-88.962
X72.729Y-91.195
X72.983Y-112.277
X75.269Y-111.007
X76.285Y-77.733
X78.317Y-89.417
X78.571Y-65.033
X78.74Y-110.744
X79.079Y-98.552
X79.333Y-43.189
X81.164Y-123.898
X81.619Y-110.753
X81.989Y-77.532
X82.127Y-98.561
X84.667Y-109.229
X84.667Y-110.753
X84.667Y-112.277
X86.433Y-89.664
X86.445Y-65.287
X86.699Y-91.703
X86.95Y-100.069
X87.207Y-46.745
X87.715Y-77.733
X87.715Y-97.799
X88.847Y-59.752
X90.255Y-107.959
X90.509Y-89.671
X90.763Y-100.069
X91.133Y-110.663
X91.779Y-90.941
X92.033Y-93.227
X92.149Y-115.886
X92.287Y-109.737
X92.34Y-124.406
X92.541Y-77.733
X92.541Y-100.076
X92.964Y-103.378
X93.049Y-92.211
X93.187Y-42.119
X93.811Y-96.275
X93.9Y-109.75
X94.065Y-118.627
X94.234Y-106.934
X94.319Y-100.085
X94.573Y-65.033
X94.827Y-55.127
X95.25Y-88.392
X96.605Y-101.101
X96.975Y-77.532
X97.621Y-91.957
X98.69Y-46.683
X98.753Y-105.98
X99.007Y-115.886
X99.145Y-95.005
X100.33Y-59.69
X100.923Y-113.801
X101.177Y-118.373
X101.685Y-105.165
X102.955Y-77.987
X103.325Y-104.202
X103.717Y-123.707
X105.357Y-105.726
X106.257Y-95.005
X106.373Y-115.886
X106.511Y-91.957
X106.511Y-97.799
X106.68Y-84.582
X107.135Y-103.694
X107.157Y-42.119
X107.643Y-66.864
X108.289Y-118.119
X108.543Y-113.801
X108.797Y-55.127
X111.083Y-105.419
X112.215Y-74.484
X112.215Y-108.012
X112.861Y-113.039
X113.369Y-93.989
X113.623Y-123.707
X113.739Y-115.886
X114.692Y-46.937
X115.147Y-108.721
X115.263Y-110.907
X115.655Y-86.115
X115.655Y-113.293
X115.655Y-118.373
X116.332Y-59.944
X117.433Y-96.021
X117.433Y-98.561
X117.433Y-100.593
X119.327Y-76.77
X119.581Y-88.2
X119.581Y-97.09
X119.973Y-81.797
X119.973Y-85.353
X120.227Y-123.961
X121.613Y-119.95
X122.143Y-42.373
X122.629Y-67.372
X123.177Y-116.394
X123.177Y-113.854
X123.783Y-55.381
X124.153Y-106.996
X124.407Y-95.566
X124.661Y-98.106
X125.053Y-105.165
X126.185Y-88.2
X126.323Y-83.321
X126.439Y-76.516
X126.566Y-105.599
X126.577Y-124.469
X127.593Y-73.161
X127.709Y-78.802
X128.217Y-93.788
X128.471Y-83.374
X128.662Y-47.191
X129.879Y-74.685
X129.995Y-85.914
X130.133Y-71.129
X130.302Y-60.198
X131.519Y-81.088
X131.911Y-112.023
X133.043Y-103.44
X133.181Y-72.907
X133.181Y-101.101
X133.181Y-105.419
X134.335Y-42.881
X134.62Y-124.46
X135.583Y-71.69
X135.583Y-82.104
X135.672Y-102.17
X135.975Y-55.889
X136.229Y-97.037
X136.737Y-80.781
X136.853Y-114.616
X137.753Y-93.735
X138.261Y-48.269
X138.769Y-122.183
X139.139Y-91.756
X139.901Y-61.276
X140.801Y-71.891
X140.801Y-73.669
X140.801Y-78.495
X140.801Y-108.975
X141.055Y-102.371
X141.055Y-103.895
X141.933Y-88.454
X142.022Y-118.934
X142.579Y-98.561
X143.087Y-124.469
X143.341Y-117.611
X144.241Y-43.135
X144.727Y-121.982
X144.865Y-89.671
X144.865Y-92.211
X145.881Y-56.143
X145.881Y-69.351
X146.135Y-99.323
X147.267Y-69.658
X147.356Y-100.138
X147.405Y-67.065
X147.405Y-98.307
X147.913Y-95.005
X149.437Y-109.737
X149.691Y-48.777
X149.691Y-79.511
X149.945Y-66.303
X150.569Y-92.01
X150.876Y-124.206
X151.331Y-61.784
X151.723Y-66.303
X152.993Y-81.289
X153.109Y-83.882
X153.198Y-114.362
X153.501Y-86.877
X154.009Y-112.023
X154.887Y-70.42
X154.976Y-100.9
X155.025Y-95.259
X155.163Y-43.897
X155.903Y-83.12
X156.157Y-115.124
X156.803Y-56.905
X156.919Y-67.118
X157.173Y-97.598
X157.749Y-79.444
X157.807Y-69.744
X157.858Y-109.954
X158.581Y-92.211
X159.65Y-47.953
X161.29Y-60.96
X161.798Y-124.968
X163.322Y-87.63
X163.915Y-119.135
X164.423Y-92.973
X164.846Y-66.548
X164.846Y-97.282
X165.1Y-112.776
X165.354Y-81.28
T2
X108.405Y-78.294
X110.945Y-78.294
X113.485Y-78.294
X116.025Y-78.294
X128.725Y-111.314
X128.725Y-113.854
X128.725Y-116.394
X128.725Y-118.934
X128.725Y-121.474
X134.059Y-89.216
X134.059Y-91.756
X134.059Y-94.296
T3
X92.154Y-50.047
X163.554Y-50.047
T4
X78.571Y-50.119
X78.571Y-54.619
X78.571Y-59.119
M30
