%TF.GenerationSoftware,KiCad,Pcbnew,9.0.8*%
%TF.CreationDate,2026-03-25T08:29:35+01:00*%
%TF.ProjectId,Sat_beacon,5361745f-6265-4616-936f-6e2e6b696361,rev?*%
%TF.SameCoordinates,Original*%
%TF.FileFunction,Soldermask,Top*%
%TF.FilePolarity,Negative*%
%FSLAX46Y46*%
G04 Gerber Fmt 4.6, Leading zero omitted, Abs format (unit mm)*
G04 Created by KiCad (PCBNEW 9.0.8) date 2026-03-25 08:29:35*
%MOMM*%
%LPD*%
G01*
G04 APERTURE LIST*
G04 Aperture macros list*
%AMRoundRect*
0 Rectangle with rounded corners*
0 $1 Rounding radius*
0 $2 $3 $4 $5 $6 $7 $8 $9 X,Y pos of 4 corners*
0 Add a 4 corners polygon primitive as box body*
4,1,4,$2,$3,$4,$5,$6,$7,$8,$9,$2,$3,0*
0 Add four circle primitives for the rounded corners*
1,1,$1+$1,$2,$3*
1,1,$1+$1,$4,$5*
1,1,$1+$1,$6,$7*
1,1,$1+$1,$8,$9*
0 Add four rect primitives between the rounded corners*
20,1,$1+$1,$2,$3,$4,$5,0*
20,1,$1+$1,$4,$5,$6,$7,0*
20,1,$1+$1,$6,$7,$8,$9,0*
20,1,$1+$1,$8,$9,$2,$3,0*%
G04 Aperture macros list end*
%ADD10RoundRect,0.250000X0.250000X0.475000X-0.250000X0.475000X-0.250000X-0.475000X0.250000X-0.475000X0*%
%ADD11RoundRect,0.140000X-0.170000X0.140000X-0.170000X-0.140000X0.170000X-0.140000X0.170000X0.140000X0*%
%ADD12RoundRect,0.250000X-0.625000X0.312500X-0.625000X-0.312500X0.625000X-0.312500X0.625000X0.312500X0*%
%ADD13RoundRect,0.250000X-0.250000X-0.475000X0.250000X-0.475000X0.250000X0.475000X-0.250000X0.475000X0*%
%ADD14RoundRect,0.218750X-0.256250X0.218750X-0.256250X-0.218750X0.256250X-0.218750X0.256250X0.218750X0*%
%ADD15RoundRect,0.250000X-0.850000X-0.350000X0.850000X-0.350000X0.850000X0.350000X-0.850000X0.350000X0*%
%ADD16RoundRect,0.249997X-2.950003X-2.650003X2.950003X-2.650003X2.950003X2.650003X-2.950003X2.650003X0*%
%ADD17RoundRect,0.225000X0.250000X-0.225000X0.250000X0.225000X-0.250000X0.225000X-0.250000X-0.225000X0*%
%ADD18RoundRect,0.250000X0.475000X-0.250000X0.475000X0.250000X-0.475000X0.250000X-0.475000X-0.250000X0*%
%ADD19RoundRect,0.225000X-0.225000X-0.250000X0.225000X-0.250000X0.225000X0.250000X-0.225000X0.250000X0*%
%ADD20RoundRect,0.218750X0.256250X-0.218750X0.256250X0.218750X-0.256250X0.218750X-0.256250X-0.218750X0*%
%ADD21RoundRect,0.200000X0.275000X-0.200000X0.275000X0.200000X-0.275000X0.200000X-0.275000X-0.200000X0*%
%ADD22RoundRect,0.225000X-0.250000X0.225000X-0.250000X-0.225000X0.250000X-0.225000X0.250000X0.225000X0*%
%ADD23RoundRect,0.200000X-0.275000X0.200000X-0.275000X-0.200000X0.275000X-0.200000X0.275000X0.200000X0*%
%ADD24RoundRect,0.225000X0.225000X0.250000X-0.225000X0.250000X-0.225000X-0.250000X0.225000X-0.250000X0*%
%ADD25RoundRect,0.165000X1.235000X0.385000X-1.235000X0.385000X-1.235000X-0.385000X1.235000X-0.385000X0*%
%ADD26RoundRect,0.195000X3.205000X0.455000X-3.205000X0.455000X-3.205000X-0.455000X3.205000X-0.455000X0*%
%ADD27RoundRect,0.075000X-0.415425X-0.521491X0.521491X0.415425X0.415425X0.521491X-0.521491X-0.415425X0*%
%ADD28RoundRect,0.075000X0.415425X-0.521491X0.521491X-0.415425X-0.415425X0.521491X-0.521491X0.415425X0*%
%ADD29RoundRect,0.150000X-0.587500X-0.150000X0.587500X-0.150000X0.587500X0.150000X-0.587500X0.150000X0*%
%ADD30RoundRect,0.250000X-0.300000X-0.250000X0.300000X-0.250000X0.300000X0.250000X-0.300000X0.250000X0*%
%ADD31R,2.000000X2.000000*%
%ADD32C,2.000000*%
%ADD33R,0.350000X1.000000*%
%ADD34R,1.400000X1.600000*%
%ADD35R,0.300000X1.000000*%
%ADD36R,1.000000X0.300000*%
%ADD37R,3.200000X3.200000*%
%ADD38RoundRect,0.140000X0.170000X-0.140000X0.170000X0.140000X-0.170000X0.140000X-0.170000X-0.140000X0*%
%ADD39RoundRect,0.200000X-0.200000X-0.275000X0.200000X-0.275000X0.200000X0.275000X-0.200000X0.275000X0*%
%ADD40RoundRect,0.225000X0.335876X0.017678X0.017678X0.335876X-0.335876X-0.017678X-0.017678X-0.335876X0*%
%ADD41O,4.000000X6.000000*%
%ADD42RoundRect,0.250000X-0.475000X0.250000X-0.475000X-0.250000X0.475000X-0.250000X0.475000X0.250000X0*%
%ADD43RoundRect,0.250000X0.450000X-0.262500X0.450000X0.262500X-0.450000X0.262500X-0.450000X-0.262500X0*%
%ADD44RoundRect,0.140000X-0.140000X-0.170000X0.140000X-0.170000X0.140000X0.170000X-0.140000X0.170000X0*%
%ADD45RoundRect,0.250000X0.512652X0.159099X0.159099X0.512652X-0.512652X-0.159099X-0.159099X-0.512652X0*%
%ADD46C,3.200000*%
%ADD47RoundRect,0.333332X-1.666668X1.666668X-1.666668X-1.666668X1.666668X-1.666668X1.666668X1.666668X0*%
%ADD48C,4.000000*%
%ADD49RoundRect,0.200000X0.053033X-0.335876X0.335876X-0.053033X-0.053033X0.335876X-0.335876X0.053033X0*%
G04 APERTURE END LIST*
D10*
%TO.C,C38*%
X86241316Y-70802177D03*
X84341318Y-70802177D03*
%TD*%
D11*
%TO.C,C61*%
X156919317Y-79312677D03*
X156919317Y-80272677D03*
%TD*%
D12*
%TO.C,R17*%
X103325318Y-114993176D03*
X103325318Y-117918176D03*
%TD*%
D13*
%TO.C,C53*%
X137835594Y-96074177D03*
X139735592Y-96074177D03*
%TD*%
D14*
%TO.C,L2*%
X156919317Y-72655176D03*
X156919317Y-74230178D03*
%TD*%
D15*
%TO.C,U1*%
X75181318Y-91066176D03*
X75181318Y-93346176D03*
D16*
X81481319Y-93346176D03*
D15*
X75181318Y-95626176D03*
%TD*%
D17*
%TO.C,C40*%
X147101593Y-116915177D03*
X147101593Y-115365177D03*
%TD*%
D13*
%TO.C,C60*%
X137581593Y-103186176D03*
X139481591Y-103186176D03*
%TD*%
D18*
%TO.C,C45*%
X153924000Y-110103998D03*
X153924000Y-108204000D03*
%TD*%
D19*
%TO.C,C54*%
X138185592Y-98360177D03*
X139735592Y-98360177D03*
%TD*%
D20*
%TO.C,D3*%
X103325317Y-112522677D03*
X103325317Y-110947675D03*
%TD*%
D10*
%TO.C,C37*%
X94369316Y-70802177D03*
X92469318Y-70802177D03*
%TD*%
D17*
%TO.C,C31*%
X86661317Y-119451176D03*
X86661317Y-117901176D03*
%TD*%
D18*
%TO.C,C32*%
X70101317Y-97532176D03*
X70101317Y-95632178D03*
%TD*%
D21*
%TO.C,R13*%
X82025318Y-70802176D03*
X82025318Y-69152176D03*
%TD*%
D18*
%TO.C,C30*%
X88947317Y-119801176D03*
X88947317Y-117901178D03*
%TD*%
D17*
%TO.C,C5*%
X147013317Y-86435177D03*
X147013317Y-84885177D03*
%TD*%
D12*
%TO.C,R24*%
X117978817Y-115058176D03*
X117978817Y-117983176D03*
%TD*%
D18*
%TO.C,C6*%
X154178000Y-79623998D03*
X154178000Y-77724000D03*
%TD*%
D22*
%TO.C,C13*%
X145997317Y-64486176D03*
X145997317Y-66036176D03*
%TD*%
D20*
%TO.C,D4*%
X117978817Y-112482178D03*
X117978817Y-110907176D03*
%TD*%
D23*
%TO.C,R4*%
X106373317Y-118300177D03*
X106373317Y-119950177D03*
%TD*%
D24*
%TO.C,C48*%
X139481593Y-106996176D03*
X137931593Y-106996176D03*
%TD*%
D25*
%TO.C,J5*%
X166624000Y-104732177D03*
D26*
X168624000Y-106532177D03*
X168624000Y-102932177D03*
%TD*%
D25*
%TO.C,J4*%
X166549317Y-74230177D03*
D26*
X168549317Y-76030177D03*
X168549317Y-72430177D03*
%TD*%
D13*
%TO.C,C17*%
X137694318Y-65594176D03*
X139594316Y-65594176D03*
%TD*%
D21*
%TO.C,R21*%
X151152592Y-117028177D03*
X151152592Y-115378177D03*
%TD*%
D14*
%TO.C,L1*%
X156919318Y-76211176D03*
X156919318Y-77786178D03*
%TD*%
D22*
%TO.C,C51*%
X150911592Y-98588176D03*
X150911592Y-100138176D03*
%TD*%
D18*
%TO.C,C4*%
X144727317Y-86798176D03*
X144727317Y-84898178D03*
%TD*%
D27*
%TO.C,U7*%
X101485441Y-95802965D03*
X101838995Y-96156519D03*
X102192548Y-96510072D03*
X102546102Y-96863626D03*
X103253208Y-97570732D03*
X103606762Y-97924286D03*
X104313868Y-98631392D03*
X104667422Y-98984946D03*
X105020975Y-99338499D03*
X105374529Y-99692053D03*
D28*
X107372105Y-99692053D03*
X108079212Y-98984946D03*
X108432766Y-98631392D03*
X109139872Y-97924286D03*
X109493426Y-97570732D03*
X110200532Y-96863626D03*
X110554086Y-96510072D03*
X110907639Y-96156519D03*
X111261193Y-95802965D03*
D27*
X111261193Y-93805389D03*
X110907639Y-93451835D03*
X110554086Y-93098282D03*
X110200532Y-92744728D03*
X109846979Y-92391175D03*
X109139872Y-91684068D03*
X108786319Y-91330515D03*
X108079212Y-90623408D03*
X107725659Y-90269855D03*
X107372105Y-89916301D03*
D28*
X105374529Y-89916301D03*
X105020975Y-90269855D03*
X104667422Y-90623408D03*
X103960315Y-91330515D03*
X103606762Y-91684068D03*
X102899655Y-92391175D03*
X102546102Y-92744728D03*
X101838995Y-93451835D03*
X101485441Y-93805389D03*
%TD*%
D29*
%TO.C,Q3*%
X101371818Y-119954677D03*
X101371818Y-121854677D03*
X103246819Y-120904677D03*
%TD*%
%TO.C,Q4*%
X116103817Y-119954677D03*
X116103817Y-121854677D03*
X117978818Y-120904677D03*
%TD*%
D19*
%TO.C,C18*%
X137856318Y-74738176D03*
X139406318Y-74738176D03*
%TD*%
D30*
%TO.C,Y1*%
X124153318Y-101892179D03*
X126053318Y-101892179D03*
X126053318Y-100392177D03*
X124153318Y-100392177D03*
%TD*%
D19*
%TO.C,C52*%
X137931592Y-105218177D03*
X139481592Y-105218177D03*
%TD*%
D23*
%TO.C,R23*%
X113739318Y-118300177D03*
X113739318Y-119950177D03*
%TD*%
D24*
%TO.C,C3*%
X139406318Y-76516177D03*
X137856318Y-76516177D03*
%TD*%
D17*
%TO.C,C46*%
X151638001Y-109754000D03*
X151638001Y-108204000D03*
%TD*%
D31*
%TO.C,J6*%
X116025316Y-78294177D03*
D32*
X113485316Y-78294177D03*
X110945317Y-78294177D03*
X108405316Y-78294177D03*
%TD*%
D33*
%TO.C,U4*%
X162227386Y-74283421D03*
X161577386Y-74283422D03*
X160927386Y-74283421D03*
X160927386Y-76083423D03*
X161577386Y-76083422D03*
X162227386Y-76083423D03*
%TD*%
D34*
%TO.C,SW4*%
X86525317Y-73786176D03*
X86525317Y-81786176D03*
X82025317Y-73786176D03*
X82025317Y-81786176D03*
%TD*%
D17*
%TO.C,C43*%
X149133592Y-116928177D03*
X149133592Y-115378177D03*
%TD*%
D13*
%TO.C,C2*%
X119795426Y-100261438D03*
X121695424Y-100261438D03*
%TD*%
D19*
%TO.C,C16*%
X138110317Y-67880177D03*
X139660317Y-67880177D03*
%TD*%
D17*
%TO.C,C70*%
X72387317Y-107524176D03*
X72387317Y-105974176D03*
%TD*%
D35*
%TO.C,IC1*%
X144501317Y-78762176D03*
X145001317Y-78762175D03*
X145501317Y-78762176D03*
X146001317Y-78762176D03*
X146501317Y-78762176D03*
X147001317Y-78762176D03*
X147501317Y-78762175D03*
X148001317Y-78762176D03*
D36*
X148751317Y-78012176D03*
X148751316Y-77512176D03*
X148751317Y-77012176D03*
X148751317Y-76512176D03*
X148751317Y-76012176D03*
X148751317Y-75512176D03*
X148751316Y-75012176D03*
X148751317Y-74512176D03*
D35*
X148001317Y-73762176D03*
X147501317Y-73762177D03*
X147001317Y-73762176D03*
X146501317Y-73762176D03*
X146001317Y-73762176D03*
X145501317Y-73762176D03*
X145001317Y-73762177D03*
X144501317Y-73762176D03*
D36*
X143751317Y-74512176D03*
X143751318Y-75012176D03*
X143751317Y-75512176D03*
X143751317Y-76012176D03*
X143751317Y-76512176D03*
X143751317Y-77012176D03*
X143751318Y-77512176D03*
X143751317Y-78012176D03*
D37*
X146251317Y-76262176D03*
%TD*%
D23*
%TO.C,R9*%
X88947317Y-114282176D03*
X88947317Y-115932176D03*
%TD*%
D34*
%TO.C,SW5*%
X102781317Y-73786176D03*
X102781317Y-81786176D03*
X98281317Y-73786176D03*
X98281317Y-81786176D03*
%TD*%
D21*
%TO.C,R14*%
X98281317Y-70802177D03*
X98281317Y-69152177D03*
%TD*%
D29*
%TO.C,Q2*%
X94338317Y-119954677D03*
X94338317Y-121854677D03*
X96213318Y-120904677D03*
%TD*%
D38*
%TO.C,C68*%
X157007592Y-101662176D03*
X157007592Y-100702176D03*
%TD*%
D22*
%TO.C,C58*%
X149133592Y-98588176D03*
X149133592Y-100138176D03*
%TD*%
D39*
%TO.C,R1*%
X121719108Y-104862101D03*
X123369108Y-104862101D03*
%TD*%
D13*
%TO.C,C19*%
X137506318Y-72706176D03*
X139406316Y-72706176D03*
%TD*%
D21*
%TO.C,R11*%
X74151317Y-70802176D03*
X74151317Y-69152176D03*
%TD*%
D19*
%TO.C,C1*%
X120145425Y-102547439D03*
X121695425Y-102547439D03*
%TD*%
%TO.C,C44*%
X138452592Y-110044176D03*
X140002592Y-110044176D03*
%TD*%
D40*
%TO.C,C23*%
X102081180Y-100929135D03*
X100985164Y-99833119D03*
%TD*%
D23*
%TO.C,R10*%
X86915317Y-110663177D03*
X86915317Y-112313177D03*
%TD*%
D17*
%TO.C,C34*%
X86611318Y-94883177D03*
X86611318Y-93333177D03*
%TD*%
D22*
%TO.C,C9*%
X152601317Y-68108176D03*
X152601317Y-69658176D03*
%TD*%
%TO.C,C56*%
X141513592Y-95032177D03*
X141513592Y-96582177D03*
%TD*%
D17*
%TO.C,C71*%
X86611317Y-105238176D03*
X86611317Y-103688176D03*
%TD*%
D15*
%TO.C,U3*%
X75181318Y-101414177D03*
X75181318Y-103694177D03*
D16*
X81481319Y-103694177D03*
D15*
X75181318Y-105974177D03*
%TD*%
D24*
%TO.C,C25*%
X150582317Y-82866177D03*
X149032317Y-82866177D03*
%TD*%
D41*
%TO.C,SW1*%
X76909317Y-58482176D03*
X81409318Y-58482176D03*
X72409316Y-58482176D03*
%TD*%
D13*
%TO.C,C42*%
X138023594Y-112076176D03*
X139923592Y-112076176D03*
%TD*%
D17*
%TO.C,C33*%
X72387317Y-97182177D03*
X72387317Y-95632177D03*
%TD*%
D15*
%TO.C,U2*%
X75231317Y-115627177D03*
X75231317Y-117907177D03*
D16*
X81531318Y-117907177D03*
D15*
X75231317Y-120187177D03*
%TD*%
D42*
%TO.C,C15*%
X143711318Y-64136178D03*
X143711318Y-66036176D03*
%TD*%
D43*
%TO.C,R2*%
X133297317Y-76770176D03*
X133297317Y-74945176D03*
%TD*%
D44*
%TO.C,C62*%
X158443318Y-76174677D03*
X159403318Y-76174677D03*
%TD*%
D42*
%TO.C,C55*%
X143799592Y-94682177D03*
X143799592Y-96582175D03*
%TD*%
D23*
%TO.C,R26*%
X88947317Y-110663177D03*
X88947317Y-112313177D03*
%TD*%
D11*
%TO.C,C65*%
X157007592Y-109792677D03*
X157007592Y-110752677D03*
%TD*%
D21*
%TO.C,R12*%
X90153318Y-70802176D03*
X90153318Y-69152176D03*
%TD*%
D18*
%TO.C,C35*%
X88897318Y-95246176D03*
X88897318Y-93346178D03*
%TD*%
D31*
%TO.C,J1*%
X128725317Y-111314177D03*
D32*
X128725317Y-113854177D03*
X128725317Y-116394176D03*
X128725317Y-118934177D03*
X128725317Y-121474177D03*
%TD*%
D33*
%TO.C,U5*%
X162241529Y-104797031D03*
X161591529Y-104797032D03*
X160941529Y-104797031D03*
X160941529Y-106597033D03*
X161591529Y-106597032D03*
X162241529Y-106597033D03*
%TD*%
D21*
%TO.C,R7*%
X151077318Y-86548176D03*
X151077318Y-84898176D03*
%TD*%
D23*
%TO.C,R8*%
X88897317Y-89664177D03*
X88897317Y-91314177D03*
%TD*%
D18*
%TO.C,C28*%
X70151317Y-122087175D03*
X70151317Y-120187177D03*
%TD*%
D13*
%TO.C,C21*%
X138014319Y-81596177D03*
X139914317Y-81596177D03*
%TD*%
D14*
%TO.C,L4*%
X157007592Y-103135175D03*
X157007592Y-104710177D03*
%TD*%
D17*
%TO.C,C29*%
X72437317Y-121737176D03*
X72437317Y-120187176D03*
%TD*%
D20*
%TO.C,D1*%
X110691318Y-112522677D03*
X110691318Y-110947675D03*
%TD*%
D45*
%TO.C,C22*%
X100612730Y-102841928D03*
X99269228Y-101498426D03*
%TD*%
D23*
%TO.C,R18*%
X99007318Y-118300177D03*
X99007318Y-119950177D03*
%TD*%
D18*
%TO.C,C72*%
X88897317Y-105588176D03*
X88897317Y-103688178D03*
%TD*%
D34*
%TO.C,SW3*%
X94653317Y-73786176D03*
X94653317Y-81786176D03*
X90153317Y-73786176D03*
X90153317Y-81786176D03*
%TD*%
D22*
%TO.C,C11*%
X150823317Y-68121177D03*
X150823317Y-69671177D03*
%TD*%
D46*
%TO.C,BT1*%
X56843317Y-63999677D03*
X56843317Y-117699677D03*
D47*
X56843317Y-55554677D03*
D48*
X56843317Y-126954677D03*
%TD*%
D29*
%TO.C,Q1*%
X108737818Y-119954676D03*
X108737818Y-121854676D03*
X110612819Y-120904676D03*
%TD*%
D44*
%TO.C,C67*%
X158537379Y-104704448D03*
X159497379Y-104704448D03*
%TD*%
D23*
%TO.C,R16*%
X92149317Y-118300176D03*
X92149317Y-119950176D03*
%TD*%
D34*
%TO.C,SW2*%
X78651317Y-73786176D03*
X78651317Y-81786176D03*
X74151317Y-73786176D03*
X74151317Y-81786176D03*
%TD*%
D10*
%TO.C,C39*%
X102497316Y-70802177D03*
X100597318Y-70802177D03*
%TD*%
D12*
%TO.C,R15*%
X96213318Y-114931677D03*
X96213318Y-117856677D03*
%TD*%
D31*
%TO.C,J2*%
X134059317Y-94296175D03*
D32*
X134059317Y-91756175D03*
X134059317Y-89216176D03*
%TD*%
D39*
%TO.C,R20*%
X147483592Y-118934177D03*
X149133592Y-118934177D03*
%TD*%
D24*
%TO.C,C41*%
X150670592Y-113346177D03*
X149120592Y-113346177D03*
%TD*%
D19*
%TO.C,C20*%
X138364317Y-79564176D03*
X139914317Y-79564176D03*
%TD*%
D35*
%TO.C,IC2*%
X144589593Y-109242177D03*
X145089593Y-109242176D03*
X145589593Y-109242177D03*
X146089593Y-109242177D03*
X146589593Y-109242177D03*
X147089593Y-109242177D03*
X147589593Y-109242176D03*
X148089593Y-109242177D03*
D36*
X148839593Y-108492177D03*
X148839592Y-107992177D03*
X148839593Y-107492177D03*
X148839593Y-106992177D03*
X148839593Y-106492177D03*
X148839593Y-105992177D03*
X148839592Y-105492177D03*
X148839593Y-104992177D03*
D35*
X148089593Y-104242177D03*
X147589593Y-104242178D03*
X147089593Y-104242177D03*
X146589593Y-104242177D03*
X146089593Y-104242177D03*
X145589593Y-104242177D03*
X145089593Y-104242178D03*
X144589593Y-104242177D03*
D36*
X143839593Y-104992177D03*
X143839594Y-105492177D03*
X143839593Y-105992177D03*
X143839593Y-106492177D03*
X143839593Y-106992177D03*
X143839593Y-107492177D03*
X143839594Y-107992177D03*
X143839593Y-108492177D03*
D37*
X146339593Y-106742177D03*
%TD*%
D38*
%TO.C,C64*%
X156919317Y-71182177D03*
X156919317Y-70222177D03*
%TD*%
D10*
%TO.C,C36*%
X78439316Y-70802177D03*
X76539318Y-70802177D03*
%TD*%
D18*
%TO.C,C24*%
X145069593Y-117278175D03*
X145069593Y-115378177D03*
%TD*%
D17*
%TO.C,C7*%
X151892001Y-79273998D03*
X151892001Y-77723998D03*
%TD*%
D44*
%TO.C,C66*%
X158537379Y-106652491D03*
X159497379Y-106652491D03*
%TD*%
D12*
%TO.C,R3*%
X110691318Y-114931677D03*
X110691318Y-117856677D03*
%TD*%
D22*
%TO.C,C49*%
X152689592Y-98588176D03*
X152689592Y-100138176D03*
%TD*%
%TO.C,C12*%
X149045318Y-68108177D03*
X149045318Y-69658177D03*
%TD*%
D24*
%TO.C,C47*%
X152715592Y-118934177D03*
X151165592Y-118934177D03*
%TD*%
D43*
%TO.C,R22*%
X135583318Y-106996176D03*
X135583318Y-105171176D03*
%TD*%
D20*
%TO.C,D2*%
X96213317Y-112482178D03*
X96213317Y-110907176D03*
%TD*%
D22*
%TO.C,C14*%
X141425317Y-64539177D03*
X141425317Y-66089177D03*
%TD*%
D18*
%TO.C,C69*%
X70101317Y-107874176D03*
X70101317Y-105974178D03*
%TD*%
D14*
%TO.C,L3*%
X156990403Y-106675409D03*
X156990403Y-108250411D03*
%TD*%
D49*
%TO.C,R5*%
X113663954Y-99197540D03*
X114830680Y-98030814D03*
%TD*%
D44*
%TO.C,C63*%
X158443317Y-74204676D03*
X159403317Y-74204676D03*
%TD*%
D24*
%TO.C,C27*%
X152627317Y-88441177D03*
X151077317Y-88441177D03*
%TD*%
D21*
%TO.C,R19*%
X115263317Y-90232177D03*
X115263317Y-88582177D03*
%TD*%
D17*
%TO.C,C26*%
X149045317Y-86435177D03*
X149045317Y-84885177D03*
%TD*%
D39*
%TO.C,R6*%
X147401146Y-88469330D03*
X149051146Y-88469330D03*
%TD*%
D23*
%TO.C,R25*%
X88897317Y-100069176D03*
X88897317Y-101719176D03*
%TD*%
D22*
%TO.C,C57*%
X146085592Y-95032177D03*
X146085592Y-96582177D03*
%TD*%
M02*
