%TF.GenerationSoftware,KiCad,Pcbnew,9.0.8*%
%TF.CreationDate,2026-03-25T08:29:34+01:00*%
%TF.ProjectId,Sat_beacon,5361745f-6265-4616-936f-6e2e6b696361,rev?*%
%TF.SameCoordinates,Original*%
%TF.FileFunction,Copper,L2,Bot*%
%TF.FilePolarity,Positive*%
%FSLAX46Y46*%
G04 Gerber Fmt 4.6, Leading zero omitted, Abs format (unit mm)*
G04 Created by KiCad (PCBNEW 9.0.8) date 2026-03-25 08:29:34*
%MOMM*%
%LPD*%
G01*
G04 APERTURE LIST*
G04 Aperture macros list*
%AMRoundRect*
0 Rectangle with rounded corners*
0 $1 Rounding radius*
0 $2 $3 $4 $5 $6 $7 $8 $9 X,Y pos of 4 corners*
0 Add a 4 corners polygon primitive as box body*
4,1,4,$2,$3,$4,$5,$6,$7,$8,$9,$2,$3,0*
0 Add four circle primitives for the rounded corners*
1,1,$1+$1,$2,$3*
1,1,$1+$1,$4,$5*
1,1,$1+$1,$6,$7*
1,1,$1+$1,$8,$9*
0 Add four rect primitives between the rounded corners*
20,1,$1+$1,$2,$3,$4,$5,0*
20,1,$1+$1,$4,$5,$6,$7,0*
20,1,$1+$1,$6,$7,$8,$9,0*
20,1,$1+$1,$8,$9,$2,$3,0*%
G04 Aperture macros list end*
%ADD10C,0.500000*%
%TA.AperFunction,NonConductor*%
%ADD11C,0.500000*%
%TD*%
%TA.AperFunction,ComponentPad*%
%ADD12R,2.000000X2.000000*%
%TD*%
%TA.AperFunction,ComponentPad*%
%ADD13C,2.000000*%
%TD*%
%TA.AperFunction,ComponentPad*%
%ADD14O,4.000000X6.000000*%
%TD*%
%TA.AperFunction,ComponentPad*%
%ADD15RoundRect,0.333332X-1.666668X1.666668X-1.666668X-1.666668X1.666668X-1.666668X1.666668X1.666668X0*%
%TD*%
%TA.AperFunction,ComponentPad*%
%ADD16C,4.000000*%
%TD*%
%TA.AperFunction,ViaPad*%
%ADD17C,2.000000*%
%TD*%
%TA.AperFunction,Conductor*%
%ADD18C,0.600000*%
%TD*%
%TA.AperFunction,Conductor*%
%ADD19C,0.800000*%
%TD*%
G04 APERTURE END LIST*
D10*
D11*
X42611793Y-54429503D02*
X38611793Y-54429503D01*
X38611793Y-54429503D02*
X38611793Y-55381884D01*
X38611793Y-55381884D02*
X38802269Y-55953313D01*
X38802269Y-55953313D02*
X39183221Y-56334265D01*
X39183221Y-56334265D02*
X39564174Y-56524742D01*
X39564174Y-56524742D02*
X40326078Y-56715218D01*
X40326078Y-56715218D02*
X40897507Y-56715218D01*
X40897507Y-56715218D02*
X41659412Y-56524742D01*
X41659412Y-56524742D02*
X42040364Y-56334265D01*
X42040364Y-56334265D02*
X42421317Y-55953313D01*
X42421317Y-55953313D02*
X42611793Y-55381884D01*
X42611793Y-55381884D02*
X42611793Y-54429503D01*
X42611793Y-60143789D02*
X40516555Y-60143789D01*
X40516555Y-60143789D02*
X40135602Y-59953313D01*
X40135602Y-59953313D02*
X39945126Y-59572361D01*
X39945126Y-59572361D02*
X39945126Y-58810456D01*
X39945126Y-58810456D02*
X40135602Y-58429503D01*
X42421317Y-60143789D02*
X42611793Y-59762837D01*
X42611793Y-59762837D02*
X42611793Y-58810456D01*
X42611793Y-58810456D02*
X42421317Y-58429503D01*
X42421317Y-58429503D02*
X42040364Y-58239027D01*
X42040364Y-58239027D02*
X41659412Y-58239027D01*
X41659412Y-58239027D02*
X41278459Y-58429503D01*
X41278459Y-58429503D02*
X41087983Y-58810456D01*
X41087983Y-58810456D02*
X41087983Y-59762837D01*
X41087983Y-59762837D02*
X40897507Y-60143789D01*
X39945126Y-61667599D02*
X42611793Y-62619980D01*
X42611793Y-62619980D02*
X39945126Y-63572361D01*
X42611793Y-65096170D02*
X39945126Y-65096170D01*
X38611793Y-65096170D02*
X38802269Y-64905694D01*
X38802269Y-64905694D02*
X38992745Y-65096170D01*
X38992745Y-65096170D02*
X38802269Y-65286647D01*
X38802269Y-65286647D02*
X38611793Y-65096170D01*
X38611793Y-65096170D02*
X38992745Y-65096170D01*
X42611793Y-68715218D02*
X38611793Y-68715218D01*
X42421317Y-68715218D02*
X42611793Y-68334266D01*
X42611793Y-68334266D02*
X42611793Y-67572361D01*
X42611793Y-67572361D02*
X42421317Y-67191409D01*
X42421317Y-67191409D02*
X42230840Y-67000932D01*
X42230840Y-67000932D02*
X41849888Y-66810456D01*
X41849888Y-66810456D02*
X40707031Y-66810456D01*
X40707031Y-66810456D02*
X40326078Y-67000932D01*
X40326078Y-67000932D02*
X40135602Y-67191409D01*
X40135602Y-67191409D02*
X39945126Y-67572361D01*
X39945126Y-67572361D02*
X39945126Y-68334266D01*
X39945126Y-68334266D02*
X40135602Y-68715218D01*
X42611793Y-73667599D02*
X38611793Y-73667599D01*
X38611793Y-73667599D02*
X41468936Y-75000933D01*
X41468936Y-75000933D02*
X38611793Y-76334266D01*
X38611793Y-76334266D02*
X42611793Y-76334266D01*
X42611793Y-79953314D02*
X40516555Y-79953314D01*
X40516555Y-79953314D02*
X40135602Y-79762838D01*
X40135602Y-79762838D02*
X39945126Y-79381886D01*
X39945126Y-79381886D02*
X39945126Y-78619981D01*
X39945126Y-78619981D02*
X40135602Y-78239028D01*
X42421317Y-79953314D02*
X42611793Y-79572362D01*
X42611793Y-79572362D02*
X42611793Y-78619981D01*
X42611793Y-78619981D02*
X42421317Y-78239028D01*
X42421317Y-78239028D02*
X42040364Y-78048552D01*
X42040364Y-78048552D02*
X41659412Y-78048552D01*
X41659412Y-78048552D02*
X41278459Y-78239028D01*
X41278459Y-78239028D02*
X41087983Y-78619981D01*
X41087983Y-78619981D02*
X41087983Y-79572362D01*
X41087983Y-79572362D02*
X40897507Y-79953314D01*
X39945126Y-81858076D02*
X42611793Y-81858076D01*
X40326078Y-81858076D02*
X40135602Y-82048553D01*
X40135602Y-82048553D02*
X39945126Y-82429505D01*
X39945126Y-82429505D02*
X39945126Y-83000934D01*
X39945126Y-83000934D02*
X40135602Y-83381886D01*
X40135602Y-83381886D02*
X40516555Y-83572362D01*
X40516555Y-83572362D02*
X42611793Y-83572362D01*
X42611793Y-87191410D02*
X40516555Y-87191410D01*
X40516555Y-87191410D02*
X40135602Y-87000934D01*
X40135602Y-87000934D02*
X39945126Y-86619982D01*
X39945126Y-86619982D02*
X39945126Y-85858077D01*
X39945126Y-85858077D02*
X40135602Y-85477124D01*
X42421317Y-87191410D02*
X42611793Y-86810458D01*
X42611793Y-86810458D02*
X42611793Y-85858077D01*
X42611793Y-85858077D02*
X42421317Y-85477124D01*
X42421317Y-85477124D02*
X42040364Y-85286648D01*
X42040364Y-85286648D02*
X41659412Y-85286648D01*
X41659412Y-85286648D02*
X41278459Y-85477124D01*
X41278459Y-85477124D02*
X41087983Y-85858077D01*
X41087983Y-85858077D02*
X41087983Y-86810458D01*
X41087983Y-86810458D02*
X40897507Y-87191410D01*
X42421317Y-88905696D02*
X42611793Y-89286649D01*
X42611793Y-89286649D02*
X42611793Y-90048553D01*
X42611793Y-90048553D02*
X42421317Y-90429506D01*
X42421317Y-90429506D02*
X42040364Y-90619982D01*
X42040364Y-90619982D02*
X41849888Y-90619982D01*
X41849888Y-90619982D02*
X41468936Y-90429506D01*
X41468936Y-90429506D02*
X41278459Y-90048553D01*
X41278459Y-90048553D02*
X41278459Y-89477125D01*
X41278459Y-89477125D02*
X41087983Y-89096172D01*
X41087983Y-89096172D02*
X40707031Y-88905696D01*
X40707031Y-88905696D02*
X40516555Y-88905696D01*
X40516555Y-88905696D02*
X40135602Y-89096172D01*
X40135602Y-89096172D02*
X39945126Y-89477125D01*
X39945126Y-89477125D02*
X39945126Y-90048553D01*
X39945126Y-90048553D02*
X40135602Y-90429506D01*
X42421317Y-93858077D02*
X42611793Y-93477125D01*
X42611793Y-93477125D02*
X42611793Y-92715220D01*
X42611793Y-92715220D02*
X42421317Y-92334267D01*
X42421317Y-92334267D02*
X42040364Y-92143791D01*
X42040364Y-92143791D02*
X40516555Y-92143791D01*
X40516555Y-92143791D02*
X40135602Y-92334267D01*
X40135602Y-92334267D02*
X39945126Y-92715220D01*
X39945126Y-92715220D02*
X39945126Y-93477125D01*
X39945126Y-93477125D02*
X40135602Y-93858077D01*
X40135602Y-93858077D02*
X40516555Y-94048553D01*
X40516555Y-94048553D02*
X40897507Y-94048553D01*
X40897507Y-94048553D02*
X41278459Y-92143791D01*
X42611793Y-95762838D02*
X38611793Y-95762838D01*
X41087983Y-96143791D02*
X42611793Y-97286648D01*
X39945126Y-97286648D02*
X41468936Y-95762838D01*
X38421317Y-101858076D02*
X43564174Y-98429505D01*
X42611793Y-103191409D02*
X38611793Y-103191409D01*
X38611793Y-103191409D02*
X42611793Y-105477124D01*
X42611793Y-105477124D02*
X38611793Y-105477124D01*
X42611793Y-107381885D02*
X38611793Y-107381885D01*
X38611793Y-107381885D02*
X38611793Y-108334266D01*
X38611793Y-108334266D02*
X38802269Y-108905695D01*
X38802269Y-108905695D02*
X39183221Y-109286647D01*
X39183221Y-109286647D02*
X39564174Y-109477124D01*
X39564174Y-109477124D02*
X40326078Y-109667600D01*
X40326078Y-109667600D02*
X40897507Y-109667600D01*
X40897507Y-109667600D02*
X41659412Y-109477124D01*
X41659412Y-109477124D02*
X42040364Y-109286647D01*
X42040364Y-109286647D02*
X42421317Y-108905695D01*
X42421317Y-108905695D02*
X42611793Y-108334266D01*
X42611793Y-108334266D02*
X42611793Y-107381885D01*
X40516555Y-111381885D02*
X40516555Y-112715219D01*
X42611793Y-113286647D02*
X42611793Y-111381885D01*
X42611793Y-111381885D02*
X38611793Y-111381885D01*
X38611793Y-111381885D02*
X38611793Y-113286647D01*
X38421317Y-117858076D02*
X43564174Y-114429505D01*
X40516555Y-120524743D02*
X40707031Y-121096171D01*
X40707031Y-121096171D02*
X40897507Y-121286648D01*
X40897507Y-121286648D02*
X41278459Y-121477124D01*
X41278459Y-121477124D02*
X41849888Y-121477124D01*
X41849888Y-121477124D02*
X42230840Y-121286648D01*
X42230840Y-121286648D02*
X42421317Y-121096171D01*
X42421317Y-121096171D02*
X42611793Y-120715219D01*
X42611793Y-120715219D02*
X42611793Y-119191409D01*
X42611793Y-119191409D02*
X38611793Y-119191409D01*
X38611793Y-119191409D02*
X38611793Y-120524743D01*
X38611793Y-120524743D02*
X38802269Y-120905695D01*
X38802269Y-120905695D02*
X38992745Y-121096171D01*
X38992745Y-121096171D02*
X39373697Y-121286648D01*
X39373697Y-121286648D02*
X39754650Y-121286648D01*
X39754650Y-121286648D02*
X40135602Y-121096171D01*
X40135602Y-121096171D02*
X40326078Y-120905695D01*
X40326078Y-120905695D02*
X40516555Y-120524743D01*
X40516555Y-120524743D02*
X40516555Y-119191409D01*
X42611793Y-123762838D02*
X42421317Y-123381886D01*
X42421317Y-123381886D02*
X42230840Y-123191409D01*
X42230840Y-123191409D02*
X41849888Y-123000933D01*
X41849888Y-123000933D02*
X40707031Y-123000933D01*
X40707031Y-123000933D02*
X40326078Y-123191409D01*
X40326078Y-123191409D02*
X40135602Y-123381886D01*
X40135602Y-123381886D02*
X39945126Y-123762838D01*
X39945126Y-123762838D02*
X39945126Y-124334267D01*
X39945126Y-124334267D02*
X40135602Y-124715219D01*
X40135602Y-124715219D02*
X40326078Y-124905695D01*
X40326078Y-124905695D02*
X40707031Y-125096171D01*
X40707031Y-125096171D02*
X41849888Y-125096171D01*
X41849888Y-125096171D02*
X42230840Y-124905695D01*
X42230840Y-124905695D02*
X42421317Y-124715219D01*
X42421317Y-124715219D02*
X42611793Y-124334267D01*
X42611793Y-124334267D02*
X42611793Y-123762838D01*
X39945126Y-126239029D02*
X39945126Y-127762838D01*
X38611793Y-126810457D02*
X42040364Y-126810457D01*
X42040364Y-126810457D02*
X42421317Y-127000934D01*
X42421317Y-127000934D02*
X42611793Y-127381886D01*
X42611793Y-127381886D02*
X42611793Y-127762838D01*
D12*
%TO.P,J6,1,Pin_1*%
%TO.N,GND*%
X116025316Y-78294177D03*
D13*
%TO.P,J6,2,Pin_2*%
%TO.N,/NRST*%
X113485316Y-78294177D03*
%TO.P,J6,3,Pin_3*%
%TO.N,/SWDIO*%
X110945317Y-78294177D03*
%TO.P,J6,4,Pin_4*%
%TO.N,/SWDCLK*%
X108405316Y-78294177D03*
%TD*%
D14*
%TO.P,SW1,1,B*%
%TO.N,Net-(SW1-B)*%
X76909317Y-58482176D03*
%TO.P,SW1,2,C*%
%TO.N,unconnected-(SW1-C-Pad2)*%
X81409318Y-58482176D03*
%TO.P,SW1,3,A*%
%TO.N,+BATT*%
X72409316Y-58482176D03*
%TD*%
D12*
%TO.P,J1,1,Pin_1*%
%TO.N,GND*%
X128725317Y-111314177D03*
D13*
%TO.P,J1,2,Pin_2*%
%TO.N,/PLL_CLK*%
X128725317Y-113854177D03*
%TO.P,J1,3,Pin_3*%
%TO.N,/PLL_DATA*%
X128725317Y-116394176D03*
%TO.P,J1,4,Pin_4*%
%TO.N,/PLL_LE_2*%
X128725317Y-118934177D03*
%TO.P,J1,5,Pin_5*%
%TO.N,/PLL_CE_2*%
X128725317Y-121474177D03*
%TD*%
D15*
%TO.P,BT1,1,+*%
%TO.N,+BATT*%
X56843317Y-55554677D03*
D16*
%TO.P,BT1,2,-*%
%TO.N,GND*%
X56843317Y-126954677D03*
%TD*%
D12*
%TO.P,J2,1,Pin_1*%
%TO.N,GND*%
X134059317Y-94296175D03*
D13*
%TO.P,J2,2,Pin_2*%
%TO.N,/PLL_CE_1*%
X134059317Y-91756175D03*
%TO.P,J2,3,Pin_3*%
%TO.N,/PLL_LE_1*%
X134059317Y-89216176D03*
%TD*%
D17*
%TO.N,GND*%
X164031317Y-68134177D03*
X151331317Y-61784177D03*
X157173318Y-97598176D03*
X96975317Y-77532177D03*
X71575317Y-111822176D03*
X164031317Y-80072177D03*
X124153317Y-106996176D03*
X156157318Y-115124176D03*
X139139317Y-91756176D03*
X144727318Y-121982177D03*
X97737317Y-126300177D03*
X121613317Y-119950176D03*
X164539318Y-98868176D03*
X150569317Y-92010177D03*
X133043317Y-103440177D03*
X156919317Y-67118177D03*
X112723317Y-126300177D03*
X107643317Y-66864176D03*
X117041317Y-99376177D03*
X98753317Y-105980177D03*
X118819317Y-84644177D03*
X112215317Y-108012176D03*
X72591317Y-88962177D03*
X131519317Y-81088177D03*
X122629318Y-67372177D03*
X81989317Y-77532177D03*
X88847318Y-59752177D03*
X126185317Y-88200176D03*
X71321318Y-100900176D03*
X112215317Y-74484177D03*
X164285318Y-110806177D03*
X93165317Y-101662176D03*
X139901317Y-61276176D03*
X155903317Y-83120176D03*
%TO.N,VCC_MCU*%
X119581317Y-97090176D03*
X119581317Y-88200176D03*
X115263317Y-110907177D03*
%TO.N,/CLK_10MHZ*%
X124661317Y-98106176D03*
X126185318Y-76770176D03*
%TO.N,VCC_PLL1*%
X135583318Y-82104176D03*
X154887318Y-70420177D03*
X84783318Y-110663176D03*
X86561317Y-89790177D03*
X135583318Y-71690176D03*
X141933317Y-88454176D03*
X158951317Y-79310177D03*
%TO.N,VCC_PLL2*%
X86815317Y-100204177D03*
X91133317Y-110663176D03*
X154975592Y-100900176D03*
X136853317Y-114616176D03*
X135671593Y-102170177D03*
X142021593Y-118934177D03*
X159039592Y-109790177D03*
%TO.N,/VTUNE_1*%
X147267317Y-69658177D03*
X153109317Y-83882177D03*
%TO.N,/VTUNE_2*%
X153197592Y-114362177D03*
X147355592Y-100138177D03*
%TO.N,/LD_1*%
X119327317Y-76770177D03*
X106373317Y-115886177D03*
%TO.N,/LD_2*%
X113739318Y-115886177D03*
X128217317Y-93788177D03*
%TO.N,/PLL_LED_1*%
X92149317Y-115886177D03*
X105357318Y-105726177D03*
%TO.N,/PLL_LED_2*%
X107135318Y-103694177D03*
X99007318Y-115886177D03*
%TO.N,/NRST*%
X103325317Y-104202177D03*
%TO.N,/PLL_DATA*%
X129995317Y-85914177D03*
X123177317Y-116394176D03*
%TO.N,/PLL_CLK*%
X123177318Y-113854177D03*
X128471317Y-83374176D03*
%TO.N,/PLL_MUXOUT*%
X124407317Y-95566176D03*
X126566317Y-105599177D03*
X127709317Y-78802177D03*
%TD*%
D18*
%TO.N,VCC_MCU*%
X119581317Y-108774177D02*
X117448318Y-110907176D01*
X119581317Y-88200176D02*
X119581317Y-97090176D01*
X119581317Y-97090176D02*
X119581317Y-108774177D01*
X117448318Y-110907176D02*
X115263317Y-110907177D01*
%TO.N,/CLK_10MHZ*%
X124153317Y-98106177D02*
X122629317Y-96582177D01*
X122629317Y-80326177D02*
X126185318Y-76770176D01*
X122629317Y-96582177D02*
X122629317Y-80326177D01*
X124661317Y-98106176D02*
X124153317Y-98106177D01*
%TO.N,VCC_PLL1*%
X141933317Y-88454176D02*
X135583318Y-82104176D01*
X156157318Y-88454176D02*
X158951317Y-85660177D01*
D19*
X84783318Y-91314176D02*
X84783318Y-110663176D01*
D18*
X86561317Y-83882177D02*
X98753317Y-71690176D01*
X98753317Y-71690176D02*
X135583318Y-71690176D01*
X86561317Y-89790177D02*
X86561317Y-83882177D01*
X154887317Y-67626176D02*
X152093318Y-64832177D01*
X142441317Y-64832177D02*
X135583318Y-71690176D01*
X158951317Y-85660177D02*
X158951317Y-79310177D01*
D19*
X86561317Y-89790177D02*
X86307317Y-89790177D01*
D18*
X135583318Y-82104176D02*
X135583318Y-71690176D01*
X154887318Y-70420177D02*
X154887317Y-67626176D01*
D19*
X86307317Y-89790177D02*
X84783318Y-91314176D01*
D18*
X152093318Y-64832177D02*
X142441317Y-64832177D01*
X141933317Y-88454176D02*
X156157318Y-88454176D01*
%TO.N,VCC_PLL2*%
X141679318Y-118934177D02*
X142021593Y-118934177D01*
X89355317Y-114870176D02*
X89355317Y-120458176D01*
X137195592Y-123760177D02*
X142021593Y-118934177D01*
X89355317Y-120458176D02*
X92657317Y-123760176D01*
X142021593Y-118934177D02*
X156245593Y-118934177D01*
X91133317Y-113092176D02*
X89355317Y-114870176D01*
D19*
X88384317Y-110663177D02*
X86815318Y-109094177D01*
D18*
X151585317Y-95566176D02*
X142441317Y-95566177D01*
X137361318Y-114616177D02*
X141679318Y-118934177D01*
X142441317Y-95566177D02*
X135837317Y-102170177D01*
X136853317Y-114616176D02*
X137361318Y-114616177D01*
X156245593Y-118934177D02*
X159039592Y-116140177D01*
D19*
X91133317Y-110663176D02*
X88384317Y-110663177D01*
D18*
X91133317Y-110663176D02*
X91133317Y-113092176D01*
X135837317Y-102170177D02*
X135671593Y-102170177D01*
X136853317Y-114616176D02*
X136853317Y-103351901D01*
X154975592Y-98956451D02*
X151585317Y-95566176D01*
X92657317Y-123760176D02*
X137195592Y-123760177D01*
X154975592Y-100900176D02*
X154975592Y-98956451D01*
X159039592Y-116140177D02*
X159039592Y-109790177D01*
D19*
X86815318Y-109094177D02*
X86815317Y-100204177D01*
D18*
X136853317Y-103351901D02*
X135671593Y-102170177D01*
%TO.N,/VTUNE_1*%
X153109317Y-83882177D02*
X147267317Y-83882177D01*
X142441317Y-79056177D02*
X142441318Y-74484177D01*
X147267317Y-83882177D02*
X142441317Y-79056177D01*
X142441318Y-74484177D02*
X147267317Y-69658177D01*
%TO.N,/VTUNE_2*%
X147013318Y-114362176D02*
X142529592Y-109878451D01*
X142529592Y-104964176D02*
X147355592Y-100138177D01*
X142529592Y-109878451D02*
X142529592Y-104964176D01*
X153197592Y-114362177D02*
X147013318Y-114362176D01*
%TO.N,/LD_1*%
X109167317Y-89724177D02*
X109167317Y-108012177D01*
X109167317Y-108012177D02*
X106373318Y-110806177D01*
X119327317Y-79564177D02*
X109167317Y-89724177D01*
X119327317Y-76770177D02*
X119327317Y-79564177D01*
X106373318Y-110806177D02*
X106373317Y-115886177D01*
%TO.N,/LD_2*%
X125296317Y-110044176D02*
X121613317Y-110044177D01*
X128471317Y-94042177D02*
X128471317Y-106869176D01*
X121613317Y-110044177D02*
X115771318Y-115886177D01*
X128217317Y-93788177D02*
X128471317Y-94042177D01*
X115771318Y-115886177D02*
X113739318Y-115886177D01*
X128471317Y-106869176D02*
X125296317Y-110044176D01*
%TO.N,/PLL_LED_1*%
X104087318Y-106996176D02*
X101039317Y-106996176D01*
X101039317Y-106996176D02*
X92149317Y-115886177D01*
X105357318Y-105726177D02*
X104087318Y-106996176D01*
%TO.N,/PLL_LED_2*%
X99007318Y-111568177D02*
X101547317Y-109028177D01*
X101547317Y-109028177D02*
X105357317Y-109028176D01*
X107135317Y-107250176D02*
X107135318Y-103694177D01*
X99007318Y-115886177D02*
X99007318Y-111568177D01*
X105357317Y-109028176D02*
X107135317Y-107250176D01*
%TO.N,/NRST*%
X113485316Y-82866178D02*
X113485316Y-78294177D01*
X103325317Y-104202177D02*
X103325318Y-93026177D01*
X103325318Y-93026177D02*
X113485316Y-82866178D01*
%TO.N,/PLL_DATA*%
X131265318Y-106742177D02*
X131265317Y-87184176D01*
X135075317Y-110552176D02*
X131265318Y-106742177D01*
X123177317Y-116394176D02*
X128725318Y-116394176D01*
X135075317Y-115632177D02*
X135075317Y-110552176D01*
X134313318Y-116394176D02*
X135075317Y-115632177D01*
X128725318Y-116394176D02*
X134313318Y-116394176D01*
X131265317Y-87184176D02*
X129995317Y-85914177D01*
%TO.N,/PLL_CLK*%
X127963318Y-86930177D02*
X129995318Y-88962177D01*
X132535318Y-113854177D02*
X128725317Y-113854177D01*
X128471317Y-83374176D02*
X127963317Y-83882177D01*
X127963317Y-83882177D02*
X127963318Y-86930177D01*
X133551318Y-112838177D02*
X132535318Y-113854177D01*
X123177318Y-113854177D02*
X128725317Y-113854177D01*
X129995318Y-88962177D02*
X129995318Y-107758177D01*
X129995318Y-107758177D02*
X133551318Y-111314176D01*
X133551318Y-111314176D02*
X133551318Y-112838177D01*
%TO.N,/PLL_MUXOUT*%
X124915317Y-95566176D02*
X124407317Y-95566176D01*
X124153318Y-95312177D02*
X124153318Y-82358177D01*
X126947317Y-105218177D02*
X126947317Y-97598176D01*
X124153318Y-82358177D02*
X127709317Y-78802177D01*
X126566317Y-105599177D02*
X126947317Y-105218177D01*
X124407317Y-95566176D02*
X124153318Y-95312177D01*
X126947317Y-97598176D02*
X124915317Y-95566176D01*
%TD*%
%TA.AperFunction,Conductor*%
%TO.N,GND*%
G36*
X117848815Y-77446805D02*
G01*
X117903353Y-77501343D01*
X117907069Y-77508188D01*
X117958447Y-77609022D01*
X118067791Y-77759522D01*
X118106523Y-77812831D01*
X118106525Y-77812834D01*
X118284659Y-77990968D01*
X118284667Y-77990975D01*
X118346530Y-78035920D01*
X118357894Y-78044177D01*
X118365396Y-78049627D01*
X118413935Y-78109566D01*
X118426817Y-78170171D01*
X118426817Y-79129458D01*
X118406855Y-79203958D01*
X118383176Y-79234817D01*
X114640175Y-82977818D01*
X114573380Y-83016382D01*
X114496252Y-83016382D01*
X114429457Y-82977818D01*
X114390893Y-82911023D01*
X114385816Y-82872459D01*
X114385816Y-79861896D01*
X114405778Y-79787396D01*
X114460316Y-79732858D01*
X114534816Y-79712896D01*
X114609316Y-79732858D01*
X114625523Y-79743687D01*
X114722728Y-79818276D01*
X114868687Y-79878734D01*
X114985990Y-79894176D01*
X115775316Y-79894176D01*
X115775316Y-78727189D01*
X115832323Y-78760102D01*
X115959490Y-78794177D01*
X116091142Y-78794177D01*
X116218309Y-78760102D01*
X116275316Y-78727189D01*
X116275316Y-79894176D01*
X117064637Y-79894176D01*
X117064644Y-79894175D01*
X117181945Y-79878733D01*
X117181947Y-79878733D01*
X117327905Y-79818276D01*
X117453238Y-79722103D01*
X117453242Y-79722099D01*
X117549415Y-79596766D01*
X117609873Y-79450805D01*
X117625315Y-79333505D01*
X117625316Y-79333500D01*
X117625316Y-78544177D01*
X116458328Y-78544177D01*
X116491241Y-78487170D01*
X116525316Y-78360003D01*
X116525316Y-78228351D01*
X116491241Y-78101184D01*
X116458328Y-78044177D01*
X117625315Y-78044177D01*
X117625315Y-77575843D01*
X117645277Y-77501343D01*
X117699815Y-77446805D01*
X117774315Y-77426843D01*
X117848815Y-77446805D01*
G37*
%TD.AperFunction*%
%TA.AperFunction,Conductor*%
G36*
X167274317Y-52390639D02*
G01*
X167328855Y-52445177D01*
X167348817Y-52519677D01*
X167348817Y-129722676D01*
X167328855Y-129797176D01*
X167274317Y-129851714D01*
X167199817Y-129871676D01*
X46562817Y-129871676D01*
X46488317Y-129851714D01*
X46433779Y-129797176D01*
X46413817Y-129722676D01*
X46413817Y-126808664D01*
X54243317Y-126808664D01*
X54243317Y-127100689D01*
X54276013Y-127390883D01*
X54340993Y-127675578D01*
X54340994Y-127675580D01*
X54437443Y-127951216D01*
X54564146Y-128214321D01*
X54564150Y-128214328D01*
X54719518Y-128461595D01*
X54836346Y-128608092D01*
X56052838Y-127391599D01*
X56144241Y-127528394D01*
X56269600Y-127653753D01*
X56406392Y-127745154D01*
X55189900Y-128961646D01*
X55189900Y-128961647D01*
X55336398Y-129078475D01*
X55583665Y-129233843D01*
X55583672Y-129233847D01*
X55846777Y-129360550D01*
X56122413Y-129456999D01*
X56122415Y-129457000D01*
X56407110Y-129521980D01*
X56697304Y-129554677D01*
X56989330Y-129554677D01*
X57279523Y-129521980D01*
X57564218Y-129457000D01*
X57564220Y-129456999D01*
X57839856Y-129360550D01*
X58102961Y-129233847D01*
X58102968Y-129233843D01*
X58350230Y-129078479D01*
X58496732Y-128961647D01*
X58496732Y-128961646D01*
X57280240Y-127745154D01*
X57417034Y-127653753D01*
X57542393Y-127528394D01*
X57633794Y-127391600D01*
X58850286Y-128608092D01*
X58850287Y-128608092D01*
X58967119Y-128461590D01*
X59122483Y-128214328D01*
X59122487Y-128214321D01*
X59249190Y-127951216D01*
X59345639Y-127675580D01*
X59345640Y-127675578D01*
X59410620Y-127390883D01*
X59443317Y-127100689D01*
X59443317Y-126808664D01*
X59410620Y-126518470D01*
X59345640Y-126233775D01*
X59345639Y-126233773D01*
X59249190Y-125958137D01*
X59122487Y-125695032D01*
X59122483Y-125695025D01*
X58967115Y-125447758D01*
X58850286Y-125301260D01*
X57633794Y-126517752D01*
X57542393Y-126380960D01*
X57417034Y-126255601D01*
X57280239Y-126164198D01*
X58496732Y-124947706D01*
X58496732Y-124947705D01*
X58350235Y-124830878D01*
X58102968Y-124675510D01*
X58102961Y-124675506D01*
X57839856Y-124548803D01*
X57564220Y-124452354D01*
X57564218Y-124452353D01*
X57279523Y-124387373D01*
X56989330Y-124354677D01*
X56697304Y-124354677D01*
X56407110Y-124387373D01*
X56122415Y-124452353D01*
X56122413Y-124452354D01*
X55846777Y-124548803D01*
X55583672Y-124675506D01*
X55583665Y-124675510D01*
X55336399Y-124830878D01*
X55189900Y-124947705D01*
X55189900Y-124947706D01*
X56406393Y-126164199D01*
X56269600Y-126255601D01*
X56144241Y-126380960D01*
X56052839Y-126517753D01*
X54836346Y-125301260D01*
X54836345Y-125301260D01*
X54719518Y-125447759D01*
X54564150Y-125695025D01*
X54564146Y-125695032D01*
X54437443Y-125958137D01*
X54340994Y-126233773D01*
X54340993Y-126233775D01*
X54276013Y-126518470D01*
X54243317Y-126808664D01*
X46413817Y-126808664D01*
X46413817Y-117555443D01*
X54642817Y-117555443D01*
X54642817Y-117843910D01*
X54680465Y-118129878D01*
X54680467Y-118129891D01*
X54755125Y-118408522D01*
X54755126Y-118408525D01*
X54865510Y-118675017D01*
X54865511Y-118675019D01*
X54865513Y-118675022D01*
X55009742Y-118924833D01*
X55185343Y-119153681D01*
X55389313Y-119357651D01*
X55618161Y-119533252D01*
X55867972Y-119677481D01*
X55867974Y-119677482D01*
X55867976Y-119677483D01*
X56134468Y-119787867D01*
X56134471Y-119787868D01*
X56180018Y-119800072D01*
X56413100Y-119862526D01*
X56699089Y-119900177D01*
X56987545Y-119900177D01*
X57273534Y-119862526D01*
X57552162Y-119787868D01*
X57552165Y-119787867D01*
X57818657Y-119677483D01*
X57818656Y-119677483D01*
X57818662Y-119677481D01*
X58068473Y-119533252D01*
X58297321Y-119357651D01*
X58501291Y-119153681D01*
X58676892Y-118924833D01*
X58821121Y-118675022D01*
X58931508Y-118408522D01*
X59006166Y-118129894D01*
X59043817Y-117843905D01*
X59043817Y-117555449D01*
X59006166Y-117269460D01*
X58931508Y-116990832D01*
X58931508Y-116990831D01*
X58931507Y-116990828D01*
X58821123Y-116724336D01*
X58821122Y-116724334D01*
X58821121Y-116724332D01*
X58676892Y-116474521D01*
X58501291Y-116245673D01*
X58297321Y-116041703D01*
X58068473Y-115866102D01*
X57885079Y-115760219D01*
X57818659Y-115721871D01*
X57818657Y-115721870D01*
X57552165Y-115611486D01*
X57552162Y-115611485D01*
X57273531Y-115536827D01*
X57273518Y-115536825D01*
X56987550Y-115499177D01*
X56987545Y-115499177D01*
X56699089Y-115499177D01*
X56699083Y-115499177D01*
X56413115Y-115536825D01*
X56413102Y-115536827D01*
X56134471Y-115611485D01*
X56134468Y-115611486D01*
X55867976Y-115721870D01*
X55867974Y-115721871D01*
X55618162Y-115866101D01*
X55618161Y-115866102D01*
X55389313Y-116041703D01*
X55389311Y-116041704D01*
X55389307Y-116041708D01*
X55185348Y-116245667D01*
X55185344Y-116245671D01*
X55185343Y-116245673D01*
X55168047Y-116268214D01*
X55009741Y-116474522D01*
X54865511Y-116724334D01*
X54865510Y-116724336D01*
X54755126Y-116990828D01*
X54755125Y-116990831D01*
X54680467Y-117269462D01*
X54680465Y-117269475D01*
X54642817Y-117555443D01*
X46413817Y-117555443D01*
X46413817Y-110537214D01*
X83182818Y-110537214D01*
X83182818Y-110789138D01*
X83222228Y-111037961D01*
X83300077Y-111277555D01*
X83371621Y-111417969D01*
X83414449Y-111502022D01*
X83414449Y-111502023D01*
X83488486Y-111603926D01*
X83562525Y-111705832D01*
X83740662Y-111883969D01*
X83944473Y-112032046D01*
X84168939Y-112146417D01*
X84408533Y-112224266D01*
X84657356Y-112263676D01*
X84657361Y-112263676D01*
X84909275Y-112263676D01*
X84909280Y-112263676D01*
X85158103Y-112224266D01*
X85397697Y-112146417D01*
X85622163Y-112032046D01*
X85825974Y-111883969D01*
X86004111Y-111705832D01*
X86152188Y-111502021D01*
X86266559Y-111277555D01*
X86344408Y-111037961D01*
X86383818Y-110789138D01*
X86383818Y-110537214D01*
X86369059Y-110444031D01*
X86377120Y-110367327D01*
X86422455Y-110304929D01*
X86492914Y-110273558D01*
X86569620Y-110281619D01*
X86621583Y-110315364D01*
X86935241Y-110629022D01*
X87607177Y-111300958D01*
X87607178Y-111300959D01*
X87746535Y-111440316D01*
X87805157Y-111479486D01*
X87910399Y-111549807D01*
X87910401Y-111549808D01*
X87910403Y-111549809D01*
X87975667Y-111576842D01*
X88092481Y-111625228D01*
X88285776Y-111663677D01*
X88544568Y-111663677D01*
X88544576Y-111663676D01*
X89808650Y-111663676D01*
X89883150Y-111683638D01*
X89914009Y-111707317D01*
X90090659Y-111883967D01*
X90090667Y-111883974D01*
X90171396Y-111942626D01*
X90219935Y-112002565D01*
X90232817Y-112063170D01*
X90232817Y-112657458D01*
X90212855Y-112731958D01*
X90189176Y-112762817D01*
X88655856Y-114296136D01*
X88655852Y-114296141D01*
X88617521Y-114353508D01*
X88557304Y-114443626D01*
X88526786Y-114517306D01*
X88489422Y-114607509D01*
X88489421Y-114607511D01*
X88460149Y-114754675D01*
X88460149Y-114754677D01*
X88454817Y-114781485D01*
X88454817Y-114781489D01*
X88454817Y-120546868D01*
X88489421Y-120720838D01*
X88489424Y-120720849D01*
X88502024Y-120751265D01*
X88504503Y-120757249D01*
X88557304Y-120884723D01*
X88616380Y-120973135D01*
X88620921Y-120979931D01*
X88620924Y-120979937D01*
X88655848Y-121032206D01*
X88655852Y-121032210D01*
X88655853Y-121032212D01*
X92083281Y-124459640D01*
X92142357Y-124499112D01*
X92230770Y-124558189D01*
X92312710Y-124592129D01*
X92394651Y-124626071D01*
X92568625Y-124660676D01*
X92568626Y-124660676D01*
X137077260Y-124660676D01*
X137077264Y-124660677D01*
X137106900Y-124660677D01*
X137284284Y-124660677D01*
X137458258Y-124626072D01*
X137540198Y-124592130D01*
X137622139Y-124558190D01*
X137710551Y-124499113D01*
X137769628Y-124459641D01*
X141668397Y-120560870D01*
X141735190Y-120522308D01*
X141797061Y-120519065D01*
X141895631Y-120534677D01*
X141895635Y-120534677D01*
X142147550Y-120534677D01*
X142147555Y-120534677D01*
X142396378Y-120495267D01*
X142635972Y-120417418D01*
X142860438Y-120303047D01*
X143064249Y-120154970D01*
X143242386Y-119976833D01*
X143301044Y-119896097D01*
X143360984Y-119847559D01*
X143421588Y-119834677D01*
X156334285Y-119834677D01*
X156508259Y-119800072D01*
X156590199Y-119766130D01*
X156672140Y-119732190D01*
X156779934Y-119660164D01*
X156819629Y-119633641D01*
X159739056Y-116714213D01*
X159788330Y-116640468D01*
X159837605Y-116566724D01*
X159857487Y-116518724D01*
X159905487Y-116402843D01*
X159940092Y-116228869D01*
X159940092Y-116051485D01*
X159940092Y-111190171D01*
X159960054Y-111115671D01*
X160001513Y-111069627D01*
X160009015Y-111064177D01*
X160082248Y-111010970D01*
X160260385Y-110832833D01*
X160408462Y-110629022D01*
X160522833Y-110404556D01*
X160600682Y-110164962D01*
X160640092Y-109916139D01*
X160640092Y-109664215D01*
X160600682Y-109415392D01*
X160522833Y-109175798D01*
X160408462Y-108951332D01*
X160260385Y-108747521D01*
X160082248Y-108569384D01*
X159878437Y-108421307D01*
X159653971Y-108306936D01*
X159414377Y-108229087D01*
X159165554Y-108189677D01*
X158913630Y-108189677D01*
X158706277Y-108222518D01*
X158664806Y-108229087D01*
X158425219Y-108306934D01*
X158425213Y-108306936D01*
X158425207Y-108306938D01*
X158425207Y-108306939D01*
X158200745Y-108421308D01*
X158200744Y-108421308D01*
X157996937Y-108569383D01*
X157996934Y-108569385D01*
X157818800Y-108747519D01*
X157818798Y-108747522D01*
X157670723Y-108951329D01*
X157670723Y-108951330D01*
X157556354Y-109175792D01*
X157556349Y-109175804D01*
X157501021Y-109346087D01*
X157478502Y-109415392D01*
X157439092Y-109664215D01*
X157439092Y-109916139D01*
X157478502Y-110164962D01*
X157556351Y-110404556D01*
X157670722Y-110629022D01*
X157781299Y-110781219D01*
X157818798Y-110832831D01*
X157818800Y-110832834D01*
X157996934Y-111010968D01*
X157996942Y-111010975D01*
X158027442Y-111033134D01*
X158070169Y-111064177D01*
X158077671Y-111069627D01*
X158126210Y-111129566D01*
X158139092Y-111190171D01*
X158139092Y-115705459D01*
X158119130Y-115779959D01*
X158095451Y-115810818D01*
X155916234Y-117990036D01*
X155849439Y-118028600D01*
X155810875Y-118033677D01*
X143421588Y-118033677D01*
X143347088Y-118013715D01*
X143301044Y-117972257D01*
X143288699Y-117955266D01*
X143242386Y-117891521D01*
X143064249Y-117713384D01*
X142860438Y-117565307D01*
X142635972Y-117450936D01*
X142396378Y-117373087D01*
X142147555Y-117333677D01*
X141895631Y-117333677D01*
X141754084Y-117356096D01*
X141646811Y-117373086D01*
X141646808Y-117373087D01*
X141541119Y-117407427D01*
X141464098Y-117411463D01*
X141395377Y-117376447D01*
X141389719Y-117371078D01*
X138477692Y-114459051D01*
X138439128Y-114392256D01*
X138435885Y-114377000D01*
X138432164Y-114353508D01*
X138414407Y-114241391D01*
X138336558Y-114001797D01*
X138222187Y-113777331D01*
X138074110Y-113573520D01*
X137895973Y-113395383D01*
X137815235Y-113336723D01*
X137766698Y-113276784D01*
X137753817Y-113216181D01*
X137753817Y-104875484D01*
X141629092Y-104875484D01*
X141629092Y-109967143D01*
X141663696Y-110141115D01*
X141663697Y-110141117D01*
X141693316Y-110212622D01*
X141731579Y-110304998D01*
X141775909Y-110371342D01*
X141830128Y-110452487D01*
X146313854Y-114936211D01*
X146439283Y-115061640D01*
X146439286Y-115061642D01*
X146586769Y-115160188D01*
X146586771Y-115160189D01*
X146750652Y-115228070D01*
X146924627Y-115262676D01*
X151797596Y-115262676D01*
X151872096Y-115282638D01*
X151918139Y-115324096D01*
X151976793Y-115404826D01*
X151976796Y-115404829D01*
X151976799Y-115404833D01*
X152154936Y-115582970D01*
X152358747Y-115731047D01*
X152583213Y-115845418D01*
X152822807Y-115923267D01*
X153071630Y-115962677D01*
X153071635Y-115962677D01*
X153323549Y-115962677D01*
X153323554Y-115962677D01*
X153572377Y-115923267D01*
X153811971Y-115845418D01*
X154036437Y-115731047D01*
X154240248Y-115582970D01*
X154418385Y-115404833D01*
X154566462Y-115201022D01*
X154680833Y-114976556D01*
X154758682Y-114736962D01*
X154798092Y-114488139D01*
X154798092Y-114236215D01*
X154758682Y-113987392D01*
X154680833Y-113747798D01*
X154566462Y-113523332D01*
X154563113Y-113518723D01*
X154473504Y-113395386D01*
X154418385Y-113319521D01*
X154240248Y-113141384D01*
X154036437Y-112993307D01*
X153811971Y-112878936D01*
X153572377Y-112801087D01*
X153323554Y-112761677D01*
X153071630Y-112761677D01*
X152864277Y-112794518D01*
X152822806Y-112801087D01*
X152790691Y-112811522D01*
X152583213Y-112878936D01*
X152583207Y-112878938D01*
X152583207Y-112878939D01*
X152358745Y-112993308D01*
X152358744Y-112993308D01*
X152154937Y-113141383D01*
X152154934Y-113141385D01*
X151976802Y-113319518D01*
X151976796Y-113319524D01*
X151918141Y-113400257D01*
X151858201Y-113448795D01*
X151797598Y-113461676D01*
X147448035Y-113461676D01*
X147373535Y-113441714D01*
X147342676Y-113418035D01*
X143473733Y-109549092D01*
X143435169Y-109482297D01*
X143430092Y-109443733D01*
X143430092Y-105398894D01*
X143450054Y-105324394D01*
X143473733Y-105293535D01*
X145228223Y-103539045D01*
X147002397Y-101764870D01*
X147069190Y-101726308D01*
X147131060Y-101723065D01*
X147229630Y-101738677D01*
X147229634Y-101738677D01*
X147481549Y-101738677D01*
X147481554Y-101738677D01*
X147730377Y-101699267D01*
X147969971Y-101621418D01*
X148194437Y-101507047D01*
X148398248Y-101358970D01*
X148576385Y-101180833D01*
X148724462Y-100977022D01*
X148838833Y-100752556D01*
X148916682Y-100512962D01*
X148956092Y-100264139D01*
X148956092Y-100012215D01*
X148916682Y-99763392D01*
X148838833Y-99523798D01*
X148724462Y-99299332D01*
X148576385Y-99095521D01*
X148398248Y-98917384D01*
X148194437Y-98769307D01*
X147969971Y-98654936D01*
X147730377Y-98577087D01*
X147481554Y-98537677D01*
X147229630Y-98537677D01*
X147022277Y-98570518D01*
X146980806Y-98577087D01*
X146777680Y-98643087D01*
X146741213Y-98654936D01*
X146741207Y-98654938D01*
X146741207Y-98654939D01*
X146516745Y-98769308D01*
X146516744Y-98769308D01*
X146312937Y-98917383D01*
X146312934Y-98917385D01*
X146134800Y-99095519D01*
X146134798Y-99095522D01*
X145986723Y-99299329D01*
X145986723Y-99299330D01*
X145872354Y-99523792D01*
X145872349Y-99523804D01*
X145825736Y-99667265D01*
X145794502Y-99763392D01*
X145755092Y-100012215D01*
X145755092Y-100264139D01*
X145770703Y-100362703D01*
X145762640Y-100439409D01*
X145728896Y-100491370D01*
X141830130Y-104390137D01*
X141830123Y-104390145D01*
X141818199Y-104407992D01*
X141818190Y-104408006D01*
X141816120Y-104411105D01*
X141731579Y-104537629D01*
X141715287Y-104576962D01*
X141711110Y-104587045D01*
X141711107Y-104587051D01*
X141663696Y-104701512D01*
X141638999Y-104825677D01*
X141629092Y-104875484D01*
X137753817Y-104875484D01*
X137753817Y-103263208D01*
X137733193Y-103159522D01*
X137719212Y-103089235D01*
X137669073Y-102968190D01*
X137651330Y-102925354D01*
X137563346Y-102793677D01*
X137552781Y-102777865D01*
X137298288Y-102523372D01*
X137259724Y-102456577D01*
X137256481Y-102394706D01*
X137272093Y-102296139D01*
X137272093Y-102070617D01*
X137292055Y-101996117D01*
X137315730Y-101965262D01*
X142770675Y-96510316D01*
X142837470Y-96471753D01*
X142876034Y-96466676D01*
X151150599Y-96466676D01*
X151225099Y-96486638D01*
X151255958Y-96510317D01*
X154031451Y-99285810D01*
X154041258Y-99302797D01*
X154055130Y-99316669D01*
X154060207Y-99335617D01*
X154070015Y-99352605D01*
X154075092Y-99391169D01*
X154075092Y-99500181D01*
X154055130Y-99574681D01*
X154013673Y-99620724D01*
X153949614Y-99667266D01*
X153932936Y-99679383D01*
X153932933Y-99679386D01*
X153754800Y-99857518D01*
X153754798Y-99857521D01*
X153606723Y-100061328D01*
X153606723Y-100061329D01*
X153492354Y-100285791D01*
X153492349Y-100285803D01*
X153442999Y-100437688D01*
X153414502Y-100525391D01*
X153375092Y-100774214D01*
X153375092Y-101026138D01*
X153414502Y-101274961D01*
X153492351Y-101514555D01*
X153600244Y-101726308D01*
X153606723Y-101739022D01*
X153606723Y-101739023D01*
X153647677Y-101795391D01*
X153754799Y-101942832D01*
X153932936Y-102120969D01*
X154136747Y-102269046D01*
X154361213Y-102383417D01*
X154600807Y-102461266D01*
X154849630Y-102500676D01*
X154849635Y-102500676D01*
X155101549Y-102500676D01*
X155101554Y-102500676D01*
X155350377Y-102461266D01*
X155589971Y-102383417D01*
X155814437Y-102269046D01*
X156018248Y-102120969D01*
X156196385Y-101942832D01*
X156344462Y-101739021D01*
X156458833Y-101514555D01*
X156536682Y-101274961D01*
X156576092Y-101026138D01*
X156576092Y-100774214D01*
X156536682Y-100525391D01*
X156458833Y-100285797D01*
X156344462Y-100061331D01*
X156196385Y-99857520D01*
X156018248Y-99679383D01*
X155937510Y-99620723D01*
X155888973Y-99560784D01*
X155876092Y-99500181D01*
X155876092Y-98867759D01*
X155869637Y-98835307D01*
X155854253Y-98757967D01*
X155841487Y-98693785D01*
X155773605Y-98529904D01*
X155675056Y-98382415D01*
X152159353Y-94866712D01*
X152159350Y-94866710D01*
X152159347Y-94866707D01*
X152106383Y-94831318D01*
X152106372Y-94831312D01*
X152100276Y-94827239D01*
X152011864Y-94768163D01*
X151913286Y-94727331D01*
X151906528Y-94724531D01*
X151906525Y-94724530D01*
X151847983Y-94700281D01*
X151847981Y-94700280D01*
X151674009Y-94665676D01*
X151496625Y-94665676D01*
X151496624Y-94665676D01*
X142352626Y-94665677D01*
X142352625Y-94665677D01*
X142323497Y-94671470D01*
X142178651Y-94700282D01*
X142014770Y-94768163D01*
X142014768Y-94768164D01*
X141867285Y-94866710D01*
X141867280Y-94866714D01*
X141867281Y-94866714D01*
X136167852Y-100566140D01*
X136101057Y-100604704D01*
X136039185Y-100607947D01*
X135909672Y-100587434D01*
X135797555Y-100569677D01*
X135545631Y-100569677D01*
X135338278Y-100602518D01*
X135296807Y-100609087D01*
X135057220Y-100686934D01*
X135057214Y-100686936D01*
X135057208Y-100686938D01*
X135057208Y-100686939D01*
X134832746Y-100801308D01*
X134832745Y-100801308D01*
X134628938Y-100949383D01*
X134628935Y-100949385D01*
X134450801Y-101127519D01*
X134450799Y-101127522D01*
X134302724Y-101331329D01*
X134302724Y-101331330D01*
X134188355Y-101555792D01*
X134188350Y-101555804D01*
X134120420Y-101764872D01*
X134110503Y-101795392D01*
X134071093Y-102044215D01*
X134071093Y-102296139D01*
X134110503Y-102544962D01*
X134188352Y-102784556D01*
X134302723Y-103009022D01*
X134450800Y-103212833D01*
X134628937Y-103390970D01*
X134832748Y-103539047D01*
X135057214Y-103653418D01*
X135296808Y-103731267D01*
X135545631Y-103770677D01*
X135545636Y-103770677D01*
X135803409Y-103770677D01*
X135803409Y-103773253D01*
X135867672Y-103785020D01*
X135926429Y-103834984D01*
X135952332Y-103907632D01*
X135952817Y-103919644D01*
X135952817Y-109796459D01*
X135932855Y-109870959D01*
X135878317Y-109925497D01*
X135803817Y-109945459D01*
X135729317Y-109925497D01*
X135698458Y-109901818D01*
X132209458Y-106412818D01*
X132170894Y-106346023D01*
X132165817Y-106307459D01*
X132165817Y-95379437D01*
X132185779Y-95304937D01*
X132240317Y-95250399D01*
X132314817Y-95230437D01*
X132389317Y-95250399D01*
X132443855Y-95304937D01*
X132462543Y-95359990D01*
X132474761Y-95452809D01*
X132535217Y-95598764D01*
X132631390Y-95724097D01*
X132631394Y-95724101D01*
X132756727Y-95820274D01*
X132902688Y-95880732D01*
X133019991Y-95896174D01*
X133809317Y-95896174D01*
X133809317Y-94729187D01*
X133866324Y-94762100D01*
X133993491Y-94796175D01*
X134125143Y-94796175D01*
X134252310Y-94762100D01*
X134309317Y-94729187D01*
X134309317Y-95896174D01*
X135098638Y-95896174D01*
X135098645Y-95896173D01*
X135215946Y-95880731D01*
X135215948Y-95880731D01*
X135361906Y-95820274D01*
X135487239Y-95724101D01*
X135487243Y-95724097D01*
X135583416Y-95598764D01*
X135643874Y-95452803D01*
X135659316Y-95335503D01*
X135659317Y-95335498D01*
X135659317Y-94546175D01*
X134492329Y-94546175D01*
X134525242Y-94489168D01*
X134559317Y-94362001D01*
X134559317Y-94230349D01*
X134525242Y-94103182D01*
X134492329Y-94046175D01*
X135659316Y-94046175D01*
X135659316Y-93256854D01*
X135659315Y-93256846D01*
X135643873Y-93139545D01*
X135643873Y-93139543D01*
X135583416Y-92993585D01*
X135487243Y-92868252D01*
X135487239Y-92868248D01*
X135437022Y-92829715D01*
X135390070Y-92768525D01*
X135380003Y-92692057D01*
X135407184Y-92623927D01*
X135428187Y-92595020D01*
X135542558Y-92370554D01*
X135620407Y-92130960D01*
X135659817Y-91882137D01*
X135659817Y-91630213D01*
X135620407Y-91381390D01*
X135542558Y-91141796D01*
X135428187Y-90917330D01*
X135280110Y-90713519D01*
X135158124Y-90591533D01*
X135119561Y-90524739D01*
X135119561Y-90447611D01*
X135158123Y-90380818D01*
X135280110Y-90258832D01*
X135428187Y-90055021D01*
X135542558Y-89830555D01*
X135620407Y-89590961D01*
X135659817Y-89342138D01*
X135659817Y-89090214D01*
X135620407Y-88841391D01*
X135542558Y-88601797D01*
X135428187Y-88377331D01*
X135280110Y-88173520D01*
X135101973Y-87995383D01*
X134898162Y-87847306D01*
X134673696Y-87732935D01*
X134434102Y-87655086D01*
X134185279Y-87615676D01*
X133933355Y-87615676D01*
X133726002Y-87648517D01*
X133684531Y-87655086D01*
X133444944Y-87732933D01*
X133444938Y-87732935D01*
X133444932Y-87732937D01*
X133444932Y-87732938D01*
X133220470Y-87847307D01*
X133220469Y-87847307D01*
X133016662Y-87995382D01*
X133016659Y-87995384D01*
X132838525Y-88173518D01*
X132838523Y-88173521D01*
X132690448Y-88377328D01*
X132690448Y-88377329D01*
X132576079Y-88601791D01*
X132576074Y-88601803D01*
X132502266Y-88828961D01*
X132498227Y-88841391D01*
X132461981Y-89070231D01*
X132430612Y-89140689D01*
X132368214Y-89186023D01*
X132291508Y-89194086D01*
X132221048Y-89162715D01*
X132175714Y-89100317D01*
X132165817Y-89046920D01*
X132165817Y-87095483D01*
X132150578Y-87018869D01*
X132131212Y-86921510D01*
X132063330Y-86757629D01*
X131964781Y-86610140D01*
X131622011Y-86267370D01*
X131583447Y-86200575D01*
X131580205Y-86138705D01*
X131595817Y-86040139D01*
X131595817Y-85788215D01*
X131556407Y-85539392D01*
X131478558Y-85299798D01*
X131364187Y-85075332D01*
X131216110Y-84871521D01*
X131037973Y-84693384D01*
X130834162Y-84545307D01*
X130609696Y-84430936D01*
X130370102Y-84353087D01*
X130121279Y-84313677D01*
X130032046Y-84313677D01*
X129957546Y-84293715D01*
X129903008Y-84239177D01*
X129883046Y-84164677D01*
X129899286Y-84097032D01*
X129954558Y-83988555D01*
X130032407Y-83748961D01*
X130071817Y-83500138D01*
X130071817Y-83248214D01*
X130032407Y-82999391D01*
X129954558Y-82759797D01*
X129840187Y-82535331D01*
X129818848Y-82505961D01*
X129744543Y-82403688D01*
X129692110Y-82331520D01*
X129513973Y-82153383D01*
X129310162Y-82005306D01*
X129085696Y-81890935D01*
X128846102Y-81813086D01*
X128597279Y-81773676D01*
X128345355Y-81773676D01*
X128138002Y-81806517D01*
X128096531Y-81813086D01*
X127856944Y-81890933D01*
X127856938Y-81890935D01*
X127856932Y-81890937D01*
X127856932Y-81890938D01*
X127632470Y-82005307D01*
X127632469Y-82005307D01*
X127428662Y-82153382D01*
X127428659Y-82153384D01*
X127250525Y-82331518D01*
X127250523Y-82331521D01*
X127102448Y-82535328D01*
X127102448Y-82535329D01*
X126988079Y-82759791D01*
X126988074Y-82759803D01*
X126915983Y-82981677D01*
X126910227Y-82999391D01*
X126870817Y-83248214D01*
X126870817Y-83500138D01*
X126896971Y-83665265D01*
X126910227Y-83748961D01*
X126988076Y-83988557D01*
X127046577Y-84103369D01*
X127062817Y-84171014D01*
X127062818Y-86841485D01*
X127062818Y-87018869D01*
X127097422Y-87192841D01*
X127097423Y-87192843D01*
X127128349Y-87267505D01*
X127128351Y-87267510D01*
X127130571Y-87272868D01*
X127165305Y-87356724D01*
X127195667Y-87402163D01*
X127252478Y-87487188D01*
X127263853Y-87504211D01*
X127263854Y-87504213D01*
X129051177Y-89291536D01*
X129089741Y-89358331D01*
X129094818Y-89396895D01*
X129094818Y-92195857D01*
X129074856Y-92270357D01*
X129020318Y-92324895D01*
X128945818Y-92344857D01*
X128878174Y-92328617D01*
X128831707Y-92304941D01*
X128831701Y-92304939D01*
X128831696Y-92304936D01*
X128592102Y-92227087D01*
X128343279Y-92187677D01*
X128091355Y-92187677D01*
X127884002Y-92220518D01*
X127842531Y-92227087D01*
X127602944Y-92304934D01*
X127602938Y-92304936D01*
X127602932Y-92304938D01*
X127602932Y-92304939D01*
X127378470Y-92419308D01*
X127378469Y-92419308D01*
X127174662Y-92567383D01*
X127174659Y-92567385D01*
X126996525Y-92745519D01*
X126996523Y-92745522D01*
X126848448Y-92949329D01*
X126848448Y-92949330D01*
X126734079Y-93173792D01*
X126734074Y-93173804D01*
X126674656Y-93356675D01*
X126656227Y-93413392D01*
X126616817Y-93662215D01*
X126616817Y-93914139D01*
X126656227Y-94162962D01*
X126734076Y-94402556D01*
X126807253Y-94546175D01*
X126848448Y-94627023D01*
X126848448Y-94627024D01*
X126876531Y-94665677D01*
X126996524Y-94830833D01*
X127174661Y-95008970D01*
X127378472Y-95157047D01*
X127489461Y-95213598D01*
X127546779Y-95265206D01*
X127570613Y-95338560D01*
X127570817Y-95346358D01*
X127570817Y-96588458D01*
X127550855Y-96662958D01*
X127496317Y-96717496D01*
X127421817Y-96737458D01*
X127347317Y-96717496D01*
X127316458Y-96693817D01*
X126031692Y-95409051D01*
X125993128Y-95342256D01*
X125989885Y-95327000D01*
X125968407Y-95191391D01*
X125957247Y-95157045D01*
X125890558Y-94951797D01*
X125776187Y-94727331D01*
X125628110Y-94523520D01*
X125449973Y-94345383D01*
X125291642Y-94230349D01*
X125246164Y-94197307D01*
X125246158Y-94197303D01*
X125135172Y-94140752D01*
X125077855Y-94089143D01*
X125054022Y-94015789D01*
X125053818Y-94007993D01*
X125053818Y-82792893D01*
X125073780Y-82718393D01*
X125097455Y-82687538D01*
X127356122Y-80428870D01*
X127422915Y-80390308D01*
X127484785Y-80387065D01*
X127583355Y-80402677D01*
X127583359Y-80402677D01*
X127835274Y-80402677D01*
X127835279Y-80402677D01*
X128084102Y-80363267D01*
X128323696Y-80285418D01*
X128548162Y-80171047D01*
X128751973Y-80022970D01*
X128930110Y-79844833D01*
X129078187Y-79641022D01*
X129192558Y-79416556D01*
X129270407Y-79176962D01*
X129309817Y-78928139D01*
X129309817Y-78676215D01*
X129270407Y-78427392D01*
X129192558Y-78187798D01*
X129078187Y-77963332D01*
X128930110Y-77759521D01*
X128751973Y-77581384D01*
X128548162Y-77433307D01*
X128323696Y-77318936D01*
X128084102Y-77241087D01*
X127886983Y-77209866D01*
X127816525Y-77178496D01*
X127771191Y-77116098D01*
X127763128Y-77039394D01*
X127785818Y-76896138D01*
X127785818Y-76644214D01*
X127746408Y-76395391D01*
X127668559Y-76155797D01*
X127554188Y-75931331D01*
X127406111Y-75727520D01*
X127227974Y-75549383D01*
X127024163Y-75401306D01*
X126799697Y-75286935D01*
X126560103Y-75209086D01*
X126311280Y-75169676D01*
X126059356Y-75169676D01*
X125852003Y-75202517D01*
X125810532Y-75209086D01*
X125570945Y-75286933D01*
X125570939Y-75286935D01*
X125570933Y-75286937D01*
X125570933Y-75286938D01*
X125346471Y-75401307D01*
X125346470Y-75401307D01*
X125142663Y-75549382D01*
X125142660Y-75549384D01*
X124964526Y-75727518D01*
X124964524Y-75727521D01*
X124816449Y-75931328D01*
X124816449Y-75931329D01*
X124816448Y-75931331D01*
X124702077Y-76155797D01*
X124624228Y-76395391D01*
X124584818Y-76644214D01*
X124584818Y-76896138D01*
X124587470Y-76912882D01*
X124600429Y-76994704D01*
X124592366Y-77071409D01*
X124558622Y-77123370D01*
X121929855Y-79752138D01*
X121929854Y-79752139D01*
X121929853Y-79752141D01*
X121912964Y-79777418D01*
X121831304Y-79899630D01*
X121807675Y-79956677D01*
X121803871Y-79965860D01*
X121803866Y-79965869D01*
X121763422Y-80063510D01*
X121728817Y-80237484D01*
X121728817Y-96670869D01*
X121738091Y-96717496D01*
X121763422Y-96844843D01*
X121780215Y-96885383D01*
X121831304Y-97008724D01*
X121867918Y-97063520D01*
X121929853Y-97156213D01*
X121929856Y-97156216D01*
X123036941Y-98263301D01*
X123075505Y-98330096D01*
X123078747Y-98345351D01*
X123100224Y-98480953D01*
X123100225Y-98480954D01*
X123100226Y-98480959D01*
X123100227Y-98480961D01*
X123178076Y-98720555D01*
X123278365Y-98917384D01*
X123292448Y-98945022D01*
X123292448Y-98945023D01*
X123320319Y-98983384D01*
X123440524Y-99148832D01*
X123618661Y-99326969D01*
X123822472Y-99475046D01*
X124046938Y-99589417D01*
X124286532Y-99667266D01*
X124535355Y-99706676D01*
X124535360Y-99706676D01*
X124787274Y-99706676D01*
X124787279Y-99706676D01*
X125036102Y-99667266D01*
X125275696Y-99589417D01*
X125500162Y-99475046D01*
X125703973Y-99326969D01*
X125792458Y-99238484D01*
X125859253Y-99199920D01*
X125936381Y-99199920D01*
X126003176Y-99238484D01*
X126041740Y-99305279D01*
X126046817Y-99343843D01*
X126046817Y-103977077D01*
X126026855Y-104051577D01*
X125972317Y-104106115D01*
X125954833Y-104114737D01*
X125951934Y-104115937D01*
X125727470Y-104230308D01*
X125727469Y-104230308D01*
X125523662Y-104378383D01*
X125523659Y-104378385D01*
X125345525Y-104556519D01*
X125345523Y-104556522D01*
X125197448Y-104760329D01*
X125197448Y-104760330D01*
X125197447Y-104760332D01*
X125083076Y-104984798D01*
X125005227Y-105224392D01*
X124965817Y-105473215D01*
X124965817Y-105725139D01*
X125005227Y-105973962D01*
X125083076Y-106213556D01*
X125197447Y-106438022D01*
X125345524Y-106641833D01*
X125523661Y-106819970D01*
X125727472Y-106968047D01*
X125951938Y-107082418D01*
X126191532Y-107160267D01*
X126440355Y-107199677D01*
X126440360Y-107199677D01*
X126507597Y-107199677D01*
X126582097Y-107219639D01*
X126636635Y-107274177D01*
X126656597Y-107348677D01*
X126636635Y-107423177D01*
X126612956Y-107454036D01*
X124966956Y-109100035D01*
X124900161Y-109138599D01*
X124861597Y-109143676D01*
X121524626Y-109143677D01*
X121524625Y-109143677D01*
X121350653Y-109178281D01*
X121350647Y-109178283D01*
X121268709Y-109212222D01*
X121268710Y-109212223D01*
X121186773Y-109246162D01*
X121119905Y-109290842D01*
X121039282Y-109344712D01*
X121039277Y-109344716D01*
X115441959Y-114942036D01*
X115424971Y-114951843D01*
X115411100Y-114965715D01*
X115392151Y-114970792D01*
X115375164Y-114980600D01*
X115336600Y-114985677D01*
X115139313Y-114985677D01*
X115064813Y-114965715D01*
X115018769Y-114924257D01*
X114998843Y-114896831D01*
X114960111Y-114843521D01*
X114781974Y-114665384D01*
X114578163Y-114517307D01*
X114353697Y-114402936D01*
X114114103Y-114325087D01*
X113865280Y-114285677D01*
X113613356Y-114285677D01*
X113406003Y-114318518D01*
X113364532Y-114325087D01*
X113124945Y-114402934D01*
X113124939Y-114402936D01*
X113124933Y-114402938D01*
X113124933Y-114402939D01*
X112900471Y-114517308D01*
X112900470Y-114517308D01*
X112696663Y-114665383D01*
X112696660Y-114665385D01*
X112518526Y-114843519D01*
X112518524Y-114843522D01*
X112370449Y-115047329D01*
X112370449Y-115047330D01*
X112278358Y-115228070D01*
X112256077Y-115271798D01*
X112178228Y-115511392D01*
X112138818Y-115760215D01*
X112138818Y-116012139D01*
X112178228Y-116260962D01*
X112256077Y-116500556D01*
X112370448Y-116725022D01*
X112518525Y-116928833D01*
X112696662Y-117106970D01*
X112900473Y-117255047D01*
X113124939Y-117369418D01*
X113364533Y-117447267D01*
X113613356Y-117486677D01*
X113613361Y-117486677D01*
X113865275Y-117486677D01*
X113865280Y-117486677D01*
X114114103Y-117447267D01*
X114353697Y-117369418D01*
X114578163Y-117255047D01*
X114781974Y-117106970D01*
X114960111Y-116928833D01*
X115018769Y-116848097D01*
X115078709Y-116799559D01*
X115139313Y-116786677D01*
X115860010Y-116786677D01*
X116033984Y-116752072D01*
X116125382Y-116714213D01*
X116197865Y-116684190D01*
X116286277Y-116625113D01*
X116345354Y-116585641D01*
X121942676Y-110988316D01*
X122009471Y-110949753D01*
X122048035Y-110944676D01*
X125385009Y-110944676D01*
X125558983Y-110910071D01*
X125640923Y-110876129D01*
X125722864Y-110842189D01*
X125817506Y-110778951D01*
X125870353Y-110743640D01*
X128843339Y-107770653D01*
X128876624Y-107751436D01*
X128909804Y-107732179D01*
X128909980Y-107732178D01*
X128910132Y-107732091D01*
X128948588Y-107732091D01*
X128986932Y-107732004D01*
X128987083Y-107732091D01*
X128987260Y-107732091D01*
X129020621Y-107751352D01*
X129053814Y-107770415D01*
X129053892Y-107770561D01*
X129054055Y-107770655D01*
X129092531Y-107837122D01*
X129094818Y-107845580D01*
X129094818Y-107846869D01*
X129129423Y-108020843D01*
X129162571Y-108100868D01*
X129166242Y-108109730D01*
X129166244Y-108109738D01*
X129197302Y-108184720D01*
X129256379Y-108273133D01*
X129256380Y-108273136D01*
X129295849Y-108332207D01*
X129295853Y-108332212D01*
X129295854Y-108332213D01*
X131811894Y-110848252D01*
X132607177Y-111643534D01*
X132645741Y-111710329D01*
X132650818Y-111748893D01*
X132650818Y-112403459D01*
X132630856Y-112477959D01*
X132607177Y-112508818D01*
X132205959Y-112910036D01*
X132139164Y-112948600D01*
X132100600Y-112953677D01*
X130293037Y-112953677D01*
X130218537Y-112933715D01*
X130163999Y-112879177D01*
X130144037Y-112804677D01*
X130163999Y-112730177D01*
X130174828Y-112713971D01*
X130249416Y-112616766D01*
X130309874Y-112470805D01*
X130325316Y-112353505D01*
X130325317Y-112353500D01*
X130325317Y-111564177D01*
X129158329Y-111564177D01*
X129191242Y-111507170D01*
X129225317Y-111380003D01*
X129225317Y-111248351D01*
X129191242Y-111121184D01*
X129158329Y-111064177D01*
X130325316Y-111064177D01*
X130325316Y-110274856D01*
X130325315Y-110274848D01*
X130309873Y-110157547D01*
X130309873Y-110157545D01*
X130249416Y-110011587D01*
X130153243Y-109886254D01*
X130153239Y-109886250D01*
X130027906Y-109790077D01*
X129881945Y-109729619D01*
X129764645Y-109714177D01*
X128975317Y-109714177D01*
X128975317Y-110881165D01*
X128918310Y-110848252D01*
X128791143Y-110814177D01*
X128659491Y-110814177D01*
X128532324Y-110848252D01*
X128475317Y-110881165D01*
X128475317Y-109714177D01*
X127685996Y-109714177D01*
X127685987Y-109714178D01*
X127568687Y-109729620D01*
X127568685Y-109729620D01*
X127422727Y-109790077D01*
X127297394Y-109886250D01*
X127297390Y-109886254D01*
X127201217Y-110011587D01*
X127140759Y-110157548D01*
X127125317Y-110274848D01*
X127125317Y-111064177D01*
X128292305Y-111064177D01*
X128259392Y-111121184D01*
X128225317Y-111248351D01*
X128225317Y-111380003D01*
X128259392Y-111507170D01*
X128292305Y-111564177D01*
X127125318Y-111564177D01*
X127125318Y-112353505D01*
X127140760Y-112470806D01*
X127140760Y-112470808D01*
X127201217Y-112616766D01*
X127275806Y-112713971D01*
X127305322Y-112785228D01*
X127295255Y-112861696D01*
X127248303Y-112922886D01*
X127177046Y-112952402D01*
X127157597Y-112953677D01*
X124577313Y-112953677D01*
X124502813Y-112933715D01*
X124456769Y-112892257D01*
X124434565Y-112861696D01*
X124398111Y-112811521D01*
X124219974Y-112633384D01*
X124016163Y-112485307D01*
X123791697Y-112370936D01*
X123552103Y-112293087D01*
X123303280Y-112253677D01*
X123051356Y-112253677D01*
X122844003Y-112286518D01*
X122802532Y-112293087D01*
X122616601Y-112353500D01*
X122562939Y-112370936D01*
X122562933Y-112370938D01*
X122562933Y-112370939D01*
X122338471Y-112485308D01*
X122338470Y-112485308D01*
X122134663Y-112633383D01*
X122134660Y-112633385D01*
X121956526Y-112811519D01*
X121956524Y-112811522D01*
X121808449Y-113015329D01*
X121808449Y-113015330D01*
X121694080Y-113239792D01*
X121694075Y-113239804D01*
X121616228Y-113479391D01*
X121609269Y-113523329D01*
X121576818Y-113728215D01*
X121576818Y-113980139D01*
X121616228Y-114228962D01*
X121694077Y-114468556D01*
X121808448Y-114693022D01*
X121917792Y-114843522D01*
X121956524Y-114896831D01*
X121956526Y-114896834D01*
X122078509Y-115018817D01*
X122117073Y-115085612D01*
X122117073Y-115162740D01*
X122078509Y-115229535D01*
X121956525Y-115351518D01*
X121956523Y-115351521D01*
X121808448Y-115555328D01*
X121808448Y-115555329D01*
X121694079Y-115779791D01*
X121694074Y-115779803D01*
X121634655Y-115962677D01*
X121616227Y-116019391D01*
X121576817Y-116268214D01*
X121576817Y-116520138D01*
X121616227Y-116768961D01*
X121694076Y-117008555D01*
X121804935Y-117226129D01*
X121808448Y-117233022D01*
X121808448Y-117233023D01*
X121828100Y-117260071D01*
X121956524Y-117436832D01*
X122134661Y-117614969D01*
X122338472Y-117763046D01*
X122562938Y-117877417D01*
X122802532Y-117955266D01*
X123051355Y-117994676D01*
X123051360Y-117994676D01*
X123303274Y-117994676D01*
X123303279Y-117994676D01*
X123552102Y-117955266D01*
X123791696Y-117877417D01*
X124016162Y-117763046D01*
X124219973Y-117614969D01*
X124398110Y-117436832D01*
X124456768Y-117356096D01*
X124516708Y-117307558D01*
X124577312Y-117294676D01*
X127325322Y-117294676D01*
X127348439Y-117300870D01*
X127372333Y-117302286D01*
X127383083Y-117310152D01*
X127399822Y-117314638D01*
X127436729Y-117344734D01*
X127441577Y-117350193D01*
X127504524Y-117436832D01*
X127629628Y-117561936D01*
X127632557Y-117565234D01*
X127647919Y-117595901D01*
X127665073Y-117625612D01*
X127665073Y-117630143D01*
X127667102Y-117634194D01*
X127665073Y-117668437D01*
X127665073Y-117702740D01*
X127662808Y-117706662D01*
X127662540Y-117711187D01*
X127643655Y-117739836D01*
X127626509Y-117769534D01*
X127504531Y-117891511D01*
X127504523Y-117891522D01*
X127356448Y-118095329D01*
X127356448Y-118095330D01*
X127356447Y-118095332D01*
X127242076Y-118319798D01*
X127164227Y-118559392D01*
X127124817Y-118808215D01*
X127124817Y-119060139D01*
X127164227Y-119308962D01*
X127242076Y-119548556D01*
X127352935Y-119766130D01*
X127356448Y-119773023D01*
X127356448Y-119773024D01*
X127504523Y-119976831D01*
X127504525Y-119976834D01*
X127626509Y-120098818D01*
X127665073Y-120165613D01*
X127665073Y-120242741D01*
X127626509Y-120309536D01*
X127504525Y-120431519D01*
X127504523Y-120431522D01*
X127356448Y-120635329D01*
X127356448Y-120635330D01*
X127242079Y-120859792D01*
X127242074Y-120859804D01*
X127186055Y-121032214D01*
X127164227Y-121099392D01*
X127124817Y-121348215D01*
X127124817Y-121600139D01*
X127164227Y-121848962D01*
X127242076Y-122088556D01*
X127242079Y-122088561D01*
X127356448Y-122313023D01*
X127356448Y-122313024D01*
X127504523Y-122516831D01*
X127504525Y-122516834D01*
X127593008Y-122605317D01*
X127631572Y-122672112D01*
X127631572Y-122749240D01*
X127593008Y-122816035D01*
X127526213Y-122854599D01*
X127487649Y-122859676D01*
X93092035Y-122859676D01*
X93017535Y-122839714D01*
X92986676Y-122816035D01*
X90299458Y-120128817D01*
X90260894Y-120062022D01*
X90255817Y-120023458D01*
X90255817Y-116055432D01*
X90275779Y-115980932D01*
X90330317Y-115926394D01*
X90404817Y-115906432D01*
X90479317Y-115926394D01*
X90533855Y-115980932D01*
X90551981Y-116032118D01*
X90588227Y-116260962D01*
X90666076Y-116500556D01*
X90780447Y-116725022D01*
X90928524Y-116928833D01*
X91106661Y-117106970D01*
X91310472Y-117255047D01*
X91534938Y-117369418D01*
X91774532Y-117447267D01*
X92023355Y-117486677D01*
X92023360Y-117486677D01*
X92275274Y-117486677D01*
X92275279Y-117486677D01*
X92524102Y-117447267D01*
X92763696Y-117369418D01*
X92988162Y-117255047D01*
X93191973Y-117106970D01*
X93370110Y-116928833D01*
X93518187Y-116725022D01*
X93632558Y-116500556D01*
X93710407Y-116260962D01*
X93749817Y-116012139D01*
X93749817Y-115760215D01*
X93734205Y-115661646D01*
X93742268Y-115584942D01*
X93776010Y-115532982D01*
X97852459Y-111456532D01*
X97919254Y-111417969D01*
X97996382Y-111417969D01*
X98063177Y-111456533D01*
X98101741Y-111523328D01*
X98106818Y-111561892D01*
X98106818Y-114486182D01*
X98086856Y-114560682D01*
X98045399Y-114606724D01*
X97964662Y-114665384D01*
X97964661Y-114665385D01*
X97964659Y-114665387D01*
X97786526Y-114843519D01*
X97786524Y-114843522D01*
X97638449Y-115047329D01*
X97638449Y-115047330D01*
X97546358Y-115228070D01*
X97524077Y-115271798D01*
X97446228Y-115511392D01*
X97406818Y-115760215D01*
X97406818Y-116012139D01*
X97446228Y-116260962D01*
X97524077Y-116500556D01*
X97638448Y-116725022D01*
X97786525Y-116928833D01*
X97964662Y-117106970D01*
X98168473Y-117255047D01*
X98392939Y-117369418D01*
X98632533Y-117447267D01*
X98881356Y-117486677D01*
X98881361Y-117486677D01*
X99133275Y-117486677D01*
X99133280Y-117486677D01*
X99382103Y-117447267D01*
X99621697Y-117369418D01*
X99846163Y-117255047D01*
X100049974Y-117106970D01*
X100228111Y-116928833D01*
X100376188Y-116725022D01*
X100490559Y-116500556D01*
X100568408Y-116260962D01*
X100607818Y-116012139D01*
X100607818Y-115760215D01*
X100568408Y-115511392D01*
X100490559Y-115271798D01*
X100376188Y-115047332D01*
X100228111Y-114843521D01*
X100049974Y-114665384D01*
X99969236Y-114606724D01*
X99920699Y-114546785D01*
X99907818Y-114486182D01*
X99907818Y-112002893D01*
X99927780Y-111928393D01*
X99951455Y-111897538D01*
X101876675Y-109972316D01*
X101943470Y-109933753D01*
X101982034Y-109928676D01*
X105446009Y-109928676D01*
X105627163Y-109892643D01*
X105627757Y-109895633D01*
X105690298Y-109893522D01*
X105758356Y-109929810D01*
X105799152Y-109995266D01*
X105801754Y-110072350D01*
X105765466Y-110140408D01*
X105761971Y-110144022D01*
X105673862Y-110232131D01*
X105673857Y-110232137D01*
X105673854Y-110232140D01*
X105673854Y-110232141D01*
X105636269Y-110288391D01*
X105636268Y-110288391D01*
X105575306Y-110379628D01*
X105575305Y-110379629D01*
X105564600Y-110405475D01*
X105507423Y-110543511D01*
X105507422Y-110543513D01*
X105475842Y-110702283D01*
X105472817Y-110717485D01*
X105472817Y-114486182D01*
X105452855Y-114560682D01*
X105411398Y-114606724D01*
X105330661Y-114665384D01*
X105330660Y-114665385D01*
X105330658Y-114665387D01*
X105152525Y-114843519D01*
X105152523Y-114843522D01*
X105004448Y-115047329D01*
X105004448Y-115047330D01*
X104912357Y-115228070D01*
X104890076Y-115271798D01*
X104812227Y-115511392D01*
X104772817Y-115760215D01*
X104772817Y-116012139D01*
X104812227Y-116260962D01*
X104890076Y-116500556D01*
X105004447Y-116725022D01*
X105152524Y-116928833D01*
X105330661Y-117106970D01*
X105534472Y-117255047D01*
X105758938Y-117369418D01*
X105998532Y-117447267D01*
X106247355Y-117486677D01*
X106247360Y-117486677D01*
X106499274Y-117486677D01*
X106499279Y-117486677D01*
X106748102Y-117447267D01*
X106987696Y-117369418D01*
X107212162Y-117255047D01*
X107415973Y-117106970D01*
X107594110Y-116928833D01*
X107742187Y-116725022D01*
X107856558Y-116500556D01*
X107934407Y-116260962D01*
X107973817Y-116012139D01*
X107973817Y-115760215D01*
X107934407Y-115511392D01*
X107856558Y-115271798D01*
X107742187Y-115047332D01*
X107594110Y-114843521D01*
X107415973Y-114665384D01*
X107335236Y-114606725D01*
X107286699Y-114546786D01*
X107273817Y-114486182D01*
X107273817Y-111240894D01*
X107293779Y-111166394D01*
X107317458Y-111135535D01*
X107671778Y-110781215D01*
X113662817Y-110781215D01*
X113662817Y-111033139D01*
X113702227Y-111281962D01*
X113780076Y-111521556D01*
X113891224Y-111739697D01*
X113894448Y-111746023D01*
X113894448Y-111746024D01*
X113939241Y-111807676D01*
X114042524Y-111949833D01*
X114220661Y-112127970D01*
X114424472Y-112276047D01*
X114648938Y-112390418D01*
X114888532Y-112468267D01*
X115137355Y-112507677D01*
X115137360Y-112507677D01*
X115389274Y-112507677D01*
X115389279Y-112507677D01*
X115638102Y-112468267D01*
X115877696Y-112390418D01*
X116102162Y-112276047D01*
X116305973Y-112127970D01*
X116484110Y-111949833D01*
X116531959Y-111883974D01*
X116542768Y-111869097D01*
X116602707Y-111820558D01*
X116663312Y-111807676D01*
X117537010Y-111807676D01*
X117710984Y-111773071D01*
X117799084Y-111736578D01*
X117874865Y-111705189D01*
X117963277Y-111646112D01*
X118022354Y-111606640D01*
X120280781Y-109348213D01*
X120348967Y-109246165D01*
X120348968Y-109246164D01*
X120348969Y-109246163D01*
X120369118Y-109216007D01*
X120379330Y-109200724D01*
X120387942Y-109179933D01*
X120424898Y-109090714D01*
X120436511Y-109062676D01*
X120447212Y-109036843D01*
X120481817Y-108862869D01*
X120481817Y-108685485D01*
X120481817Y-98490170D01*
X120501779Y-98415670D01*
X120543238Y-98369626D01*
X120623966Y-98310974D01*
X120623965Y-98310974D01*
X120623973Y-98310969D01*
X120802110Y-98132832D01*
X120950187Y-97929021D01*
X121064558Y-97704555D01*
X121142407Y-97464961D01*
X121181817Y-97216138D01*
X121181817Y-96964214D01*
X121142407Y-96715391D01*
X121064558Y-96475797D01*
X120950187Y-96251331D01*
X120802110Y-96047520D01*
X120623973Y-95869383D01*
X120543235Y-95810723D01*
X120494698Y-95750784D01*
X120481817Y-95690181D01*
X120481817Y-89600170D01*
X120501779Y-89525670D01*
X120543238Y-89479626D01*
X120568172Y-89461511D01*
X120623973Y-89420969D01*
X120802110Y-89242832D01*
X120950187Y-89039021D01*
X121064558Y-88814555D01*
X121142407Y-88574961D01*
X121181817Y-88326138D01*
X121181817Y-88074214D01*
X121142407Y-87825391D01*
X121064558Y-87585797D01*
X120950187Y-87361331D01*
X120802110Y-87157520D01*
X120623973Y-86979383D01*
X120420162Y-86831306D01*
X120195696Y-86716935D01*
X119956102Y-86639086D01*
X119707279Y-86599676D01*
X119455355Y-86599676D01*
X119248002Y-86632517D01*
X119206531Y-86639086D01*
X118966944Y-86716933D01*
X118966938Y-86716935D01*
X118966932Y-86716937D01*
X118966932Y-86716938D01*
X118742470Y-86831307D01*
X118742469Y-86831307D01*
X118538662Y-86979382D01*
X118538659Y-86979384D01*
X118360525Y-87157518D01*
X118360523Y-87157521D01*
X118212448Y-87361328D01*
X118212448Y-87361329D01*
X118098079Y-87585791D01*
X118098074Y-87585803D01*
X118075563Y-87655086D01*
X118020227Y-87825391D01*
X117980817Y-88074214D01*
X117980817Y-88326138D01*
X118020227Y-88574961D01*
X118098076Y-88814555D01*
X118167767Y-88951332D01*
X118212448Y-89039022D01*
X118212448Y-89039023D01*
X118256981Y-89100317D01*
X118355873Y-89236431D01*
X118360523Y-89242830D01*
X118360525Y-89242833D01*
X118538659Y-89420967D01*
X118538667Y-89420974D01*
X118619396Y-89479626D01*
X118667935Y-89539565D01*
X118680817Y-89600170D01*
X118680817Y-95690181D01*
X118660855Y-95764681D01*
X118619398Y-95810723D01*
X118538661Y-95869383D01*
X118538658Y-95869386D01*
X118360525Y-96047518D01*
X118360523Y-96047521D01*
X118212448Y-96251328D01*
X118212448Y-96251329D01*
X118098079Y-96475791D01*
X118098074Y-96475803D01*
X118020227Y-96715390D01*
X118016732Y-96737458D01*
X117980817Y-96964214D01*
X117980817Y-97216138D01*
X118020227Y-97464961D01*
X118098076Y-97704555D01*
X118098079Y-97704560D01*
X118212448Y-97929022D01*
X118212448Y-97929023D01*
X118360523Y-98132830D01*
X118360525Y-98132833D01*
X118538659Y-98310967D01*
X118538667Y-98310974D01*
X118619396Y-98369626D01*
X118667935Y-98429565D01*
X118680817Y-98490170D01*
X118680817Y-108339458D01*
X118660855Y-108413958D01*
X118637176Y-108444817D01*
X117118958Y-109963035D01*
X117052163Y-110001599D01*
X117013599Y-110006676D01*
X116663311Y-110006676D01*
X116588811Y-109986714D01*
X116542767Y-109945256D01*
X116521609Y-109916134D01*
X116484110Y-109864521D01*
X116305973Y-109686384D01*
X116102162Y-109538307D01*
X115877696Y-109423936D01*
X115638102Y-109346087D01*
X115389279Y-109306677D01*
X115137355Y-109306677D01*
X114936377Y-109338509D01*
X114888531Y-109346087D01*
X114648944Y-109423934D01*
X114648938Y-109423936D01*
X114648932Y-109423938D01*
X114648932Y-109423939D01*
X114424470Y-109538308D01*
X114424469Y-109538308D01*
X114220662Y-109686383D01*
X114220659Y-109686385D01*
X114042525Y-109864519D01*
X114042523Y-109864522D01*
X113894448Y-110068329D01*
X113894448Y-110068330D01*
X113780079Y-110292792D01*
X113780074Y-110292804D01*
X113702227Y-110532391D01*
X113694345Y-110582156D01*
X113662817Y-110781215D01*
X107671778Y-110781215D01*
X108566743Y-109886250D01*
X109866781Y-108586213D01*
X109916695Y-108511511D01*
X109965330Y-108438724D01*
X110009448Y-108332213D01*
X110033212Y-108274843D01*
X110067817Y-108100869D01*
X110067817Y-107923485D01*
X110067817Y-90158895D01*
X110087779Y-90084395D01*
X110111458Y-90053536D01*
X115062026Y-85102968D01*
X120026781Y-80138213D01*
X120076695Y-80063511D01*
X120125330Y-79990724D01*
X120145212Y-79942724D01*
X120193212Y-79826843D01*
X120227817Y-79652869D01*
X120227817Y-79475485D01*
X120227817Y-78170171D01*
X120247779Y-78095671D01*
X120289238Y-78049627D01*
X120296740Y-78044177D01*
X120369973Y-77990970D01*
X120548110Y-77812833D01*
X120696187Y-77609022D01*
X120810558Y-77384556D01*
X120888407Y-77144962D01*
X120927817Y-76896139D01*
X120927817Y-76644215D01*
X120888407Y-76395392D01*
X120810558Y-76155798D01*
X120696187Y-75931332D01*
X120548110Y-75727521D01*
X120369973Y-75549384D01*
X120166162Y-75401307D01*
X119941696Y-75286936D01*
X119702102Y-75209087D01*
X119453279Y-75169677D01*
X119201355Y-75169677D01*
X118994002Y-75202518D01*
X118952531Y-75209087D01*
X118712947Y-75286933D01*
X118712938Y-75286936D01*
X118712932Y-75286938D01*
X118712932Y-75286939D01*
X118488470Y-75401308D01*
X118488469Y-75401308D01*
X118284662Y-75549383D01*
X118284659Y-75549385D01*
X118106525Y-75727519D01*
X118106523Y-75727522D01*
X117958448Y-75931329D01*
X117958448Y-75931330D01*
X117844079Y-76155792D01*
X117844074Y-76155804D01*
X117766228Y-76395390D01*
X117766227Y-76395392D01*
X117726817Y-76644215D01*
X117726817Y-76644218D01*
X117726817Y-76644219D01*
X117726817Y-76783844D01*
X117706855Y-76858344D01*
X117652317Y-76912882D01*
X117577817Y-76932844D01*
X117503317Y-76912882D01*
X117459608Y-76874551D01*
X117453239Y-76866251D01*
X117453238Y-76866250D01*
X117327905Y-76770077D01*
X117181944Y-76709619D01*
X117064644Y-76694177D01*
X116275316Y-76694177D01*
X116275316Y-77861165D01*
X116218309Y-77828252D01*
X116091142Y-77794177D01*
X115959490Y-77794177D01*
X115832323Y-77828252D01*
X115775316Y-77861165D01*
X115775316Y-76694177D01*
X114985995Y-76694177D01*
X114985986Y-76694178D01*
X114868686Y-76709620D01*
X114868684Y-76709620D01*
X114722726Y-76770077D01*
X114597393Y-76866250D01*
X114597391Y-76866252D01*
X114558855Y-76916472D01*
X114497664Y-76963423D01*
X114421196Y-76973489D01*
X114353068Y-76946308D01*
X114324169Y-76925312D01*
X114324162Y-76925308D01*
X114324163Y-76925308D01*
X114324161Y-76925307D01*
X114099695Y-76810936D01*
X113860101Y-76733087D01*
X113611278Y-76693677D01*
X113359354Y-76693677D01*
X113152001Y-76726518D01*
X113110530Y-76733087D01*
X112870943Y-76810934D01*
X112870937Y-76810936D01*
X112870931Y-76810938D01*
X112870931Y-76810939D01*
X112646469Y-76925308D01*
X112646468Y-76925308D01*
X112442661Y-77073383D01*
X112442650Y-77073391D01*
X112320674Y-77195368D01*
X112253879Y-77233932D01*
X112176751Y-77233932D01*
X112109957Y-77195368D01*
X111987974Y-77073385D01*
X111987973Y-77073384D01*
X111784162Y-76925307D01*
X111559696Y-76810936D01*
X111320102Y-76733087D01*
X111071279Y-76693677D01*
X110819355Y-76693677D01*
X110612002Y-76726518D01*
X110570531Y-76733087D01*
X110330944Y-76810934D01*
X110330938Y-76810936D01*
X110330932Y-76810938D01*
X110330932Y-76810939D01*
X110106470Y-76925308D01*
X110106469Y-76925308D01*
X109902662Y-77073383D01*
X109902651Y-77073391D01*
X109780674Y-77195369D01*
X109713879Y-77233933D01*
X109636751Y-77233933D01*
X109569957Y-77195369D01*
X109447973Y-77073385D01*
X109447972Y-77073384D01*
X109244161Y-76925307D01*
X109019695Y-76810936D01*
X108780101Y-76733087D01*
X108531278Y-76693677D01*
X108279354Y-76693677D01*
X108072001Y-76726518D01*
X108030530Y-76733087D01*
X107790943Y-76810934D01*
X107790937Y-76810936D01*
X107790931Y-76810938D01*
X107790931Y-76810939D01*
X107566469Y-76925308D01*
X107566468Y-76925308D01*
X107362661Y-77073383D01*
X107362658Y-77073385D01*
X107184524Y-77251519D01*
X107184522Y-77251522D01*
X107036447Y-77455329D01*
X107036447Y-77455330D01*
X106922078Y-77679792D01*
X106922073Y-77679804D01*
X106899562Y-77749087D01*
X106844226Y-77919392D01*
X106804816Y-78168215D01*
X106804816Y-78420139D01*
X106844226Y-78668962D01*
X106922075Y-78908556D01*
X107034630Y-79129458D01*
X107036447Y-79133023D01*
X107036447Y-79133024D01*
X107078698Y-79191177D01*
X107184523Y-79336833D01*
X107362660Y-79514970D01*
X107566471Y-79663047D01*
X107790937Y-79777418D01*
X108030531Y-79855267D01*
X108279354Y-79894677D01*
X108279359Y-79894677D01*
X108531273Y-79894677D01*
X108531278Y-79894677D01*
X108780101Y-79855267D01*
X109019695Y-79777418D01*
X109244161Y-79663047D01*
X109447972Y-79514970D01*
X109569957Y-79392985D01*
X109636751Y-79354420D01*
X109713879Y-79354420D01*
X109780674Y-79392984D01*
X109780675Y-79392984D01*
X109902661Y-79514970D01*
X110106472Y-79663047D01*
X110330938Y-79777418D01*
X110570532Y-79855267D01*
X110819355Y-79894677D01*
X110819360Y-79894677D01*
X111071274Y-79894677D01*
X111071279Y-79894677D01*
X111320102Y-79855267D01*
X111559696Y-79777418D01*
X111784162Y-79663047D01*
X111987973Y-79514970D01*
X112109957Y-79392986D01*
X112139667Y-79375831D01*
X112168305Y-79356955D01*
X112172826Y-79356687D01*
X112176751Y-79354421D01*
X112211062Y-79354421D01*
X112245298Y-79352392D01*
X112249066Y-79354421D01*
X112253879Y-79354421D01*
X112314257Y-79386937D01*
X112317563Y-79389873D01*
X112442660Y-79514970D01*
X112529298Y-79577916D01*
X112534757Y-79582764D01*
X112552097Y-79609071D01*
X112571934Y-79633566D01*
X112573690Y-79641827D01*
X112577205Y-79647160D01*
X112578125Y-79662695D01*
X112584816Y-79694171D01*
X112584816Y-82431461D01*
X112564854Y-82505961D01*
X112541175Y-82536820D01*
X102625849Y-92452146D01*
X102611848Y-92473102D01*
X102611848Y-92473103D01*
X102527307Y-92599625D01*
X102527302Y-92599634D01*
X102493364Y-92681570D01*
X102459424Y-92763507D01*
X102459422Y-92763513D01*
X102438589Y-92868250D01*
X102427842Y-92922282D01*
X102425432Y-92934398D01*
X102424817Y-92937490D01*
X102424817Y-102802182D01*
X102404855Y-102876682D01*
X102363398Y-102922724D01*
X102282661Y-102981384D01*
X102282658Y-102981387D01*
X102104525Y-103159519D01*
X102104523Y-103159522D01*
X101956448Y-103363329D01*
X101956448Y-103363330D01*
X101842079Y-103587792D01*
X101842074Y-103587804D01*
X101764227Y-103827391D01*
X101762419Y-103838809D01*
X101724817Y-104076215D01*
X101724817Y-104328139D01*
X101764227Y-104576962D01*
X101842076Y-104816556D01*
X101956447Y-105041022D01*
X102104524Y-105244833D01*
X102282661Y-105422970D01*
X102486472Y-105571047D01*
X102710938Y-105685418D01*
X102950532Y-105763267D01*
X103179366Y-105799511D01*
X103249824Y-105830881D01*
X103295158Y-105893279D01*
X103303221Y-105969985D01*
X103271850Y-106040445D01*
X103209452Y-106085779D01*
X103156055Y-106095676D01*
X100950621Y-106095676D01*
X100834993Y-106118677D01*
X100776651Y-106130281D01*
X100776649Y-106130282D01*
X100612770Y-106198162D01*
X100612765Y-106198164D01*
X100485651Y-106283101D01*
X100467635Y-106295140D01*
X100465289Y-106296707D01*
X100465278Y-106296715D01*
X92502511Y-114259481D01*
X92435716Y-114298045D01*
X92373845Y-114301288D01*
X92275279Y-114285677D01*
X92023355Y-114285677D01*
X91816002Y-114318518D01*
X91774531Y-114325087D01*
X91534944Y-114402934D01*
X91534938Y-114402936D01*
X91534935Y-114402937D01*
X91534931Y-114402939D01*
X91478339Y-114431774D01*
X91402896Y-114447809D01*
X91329543Y-114423974D01*
X91277935Y-114366656D01*
X91261900Y-114291213D01*
X91285735Y-114217860D01*
X91305332Y-114193659D01*
X91832781Y-113666211D01*
X91846787Y-113645249D01*
X91931330Y-113518723D01*
X91954959Y-113461676D01*
X91999212Y-113354842D01*
X92033817Y-113180867D01*
X92033817Y-113003484D01*
X92033817Y-112063170D01*
X92053779Y-111988670D01*
X92095238Y-111942626D01*
X92175966Y-111883974D01*
X92175965Y-111883974D01*
X92175973Y-111883969D01*
X92354110Y-111705832D01*
X92502187Y-111502021D01*
X92616558Y-111277555D01*
X92694407Y-111037961D01*
X92733817Y-110789138D01*
X92733817Y-110537214D01*
X92694407Y-110288391D01*
X92616558Y-110048797D01*
X92502187Y-109824331D01*
X92354110Y-109620520D01*
X92175973Y-109442383D01*
X91972162Y-109294306D01*
X91747696Y-109179935D01*
X91508102Y-109102086D01*
X91259279Y-109062676D01*
X91007355Y-109062676D01*
X90800002Y-109095517D01*
X90758531Y-109102086D01*
X90630531Y-109143676D01*
X90518938Y-109179935D01*
X90518932Y-109179937D01*
X90518932Y-109179938D01*
X90294470Y-109294307D01*
X90294469Y-109294307D01*
X90090662Y-109442382D01*
X90090659Y-109442384D01*
X89914009Y-109619035D01*
X89847214Y-109657599D01*
X89808650Y-109662676D01*
X88860455Y-109662676D01*
X88785955Y-109642714D01*
X88755096Y-109619035D01*
X87859458Y-108723397D01*
X87820894Y-108656602D01*
X87815817Y-108618038D01*
X87815817Y-101528844D01*
X87835779Y-101454344D01*
X87859458Y-101423485D01*
X87923975Y-101358968D01*
X88036110Y-101246833D01*
X88184187Y-101043022D01*
X88298558Y-100818556D01*
X88376407Y-100578962D01*
X88415817Y-100330139D01*
X88415817Y-100078215D01*
X88376407Y-99829392D01*
X88298558Y-99589798D01*
X88184187Y-99365332D01*
X88036110Y-99161521D01*
X87857973Y-98983384D01*
X87654162Y-98835307D01*
X87429696Y-98720936D01*
X87190102Y-98643087D01*
X86941279Y-98603677D01*
X86689355Y-98603677D01*
X86482002Y-98636518D01*
X86440531Y-98643087D01*
X86202095Y-98720560D01*
X86200938Y-98720936D01*
X86200933Y-98720938D01*
X86200927Y-98720941D01*
X86000462Y-98823083D01*
X85925020Y-98839119D01*
X85851667Y-98815285D01*
X85800058Y-98757967D01*
X85783818Y-98690323D01*
X85783818Y-91790313D01*
X85803780Y-91715813D01*
X85827456Y-91684957D01*
X86110935Y-91401477D01*
X86177728Y-91362915D01*
X86239599Y-91359672D01*
X86435355Y-91390677D01*
X86435360Y-91390677D01*
X86687274Y-91390677D01*
X86687279Y-91390677D01*
X86936102Y-91351267D01*
X87175696Y-91273418D01*
X87400162Y-91159047D01*
X87603973Y-91010970D01*
X87782110Y-90832833D01*
X87930187Y-90629022D01*
X88044558Y-90404556D01*
X88122407Y-90164962D01*
X88161817Y-89916139D01*
X88161817Y-89664215D01*
X88122407Y-89415392D01*
X88044558Y-89175798D01*
X87930187Y-88951332D01*
X87782110Y-88747521D01*
X87603973Y-88569384D01*
X87523235Y-88510724D01*
X87474698Y-88450785D01*
X87461817Y-88390182D01*
X87461817Y-84316893D01*
X87481779Y-84242393D01*
X87505454Y-84211538D01*
X99082675Y-72634316D01*
X99149470Y-72595753D01*
X99188034Y-72590676D01*
X134183323Y-72590676D01*
X134257823Y-72610638D01*
X134303867Y-72652096D01*
X134362524Y-72732830D01*
X134362526Y-72732833D01*
X134540660Y-72910967D01*
X134540668Y-72910974D01*
X134621397Y-72969626D01*
X134669936Y-73029565D01*
X134682818Y-73090170D01*
X134682818Y-80704181D01*
X134662856Y-80778681D01*
X134621399Y-80824723D01*
X134540662Y-80883383D01*
X134540659Y-80883386D01*
X134362526Y-81061518D01*
X134362524Y-81061521D01*
X134214449Y-81265328D01*
X134214449Y-81265329D01*
X134214448Y-81265331D01*
X134100077Y-81489797D01*
X134022228Y-81729391D01*
X133982818Y-81978214D01*
X133982818Y-82230138D01*
X134022228Y-82478961D01*
X134100077Y-82718555D01*
X134214448Y-82943021D01*
X134362525Y-83146832D01*
X134540662Y-83324969D01*
X134744473Y-83473046D01*
X134968939Y-83587417D01*
X135208533Y-83665266D01*
X135457356Y-83704676D01*
X135457361Y-83704676D01*
X135709275Y-83704676D01*
X135709280Y-83704676D01*
X135807847Y-83689064D01*
X135884551Y-83697126D01*
X135936513Y-83730871D01*
X140306621Y-88100979D01*
X140345185Y-88167774D01*
X140348428Y-88229645D01*
X140332817Y-88328214D01*
X140332817Y-88580138D01*
X140372227Y-88828961D01*
X140450076Y-89068555D01*
X140563690Y-89291536D01*
X140564448Y-89293022D01*
X140564448Y-89293023D01*
X140609242Y-89354676D01*
X140712524Y-89496832D01*
X140890661Y-89674969D01*
X141094472Y-89823046D01*
X141318938Y-89937417D01*
X141558532Y-90015266D01*
X141807355Y-90054676D01*
X141807360Y-90054676D01*
X142059274Y-90054676D01*
X142059279Y-90054676D01*
X142308102Y-90015266D01*
X142547696Y-89937417D01*
X142772162Y-89823046D01*
X142975973Y-89674969D01*
X143154110Y-89496832D01*
X143212768Y-89416096D01*
X143272708Y-89367558D01*
X143333312Y-89354676D01*
X156246010Y-89354676D01*
X156419984Y-89320071D01*
X156501924Y-89286129D01*
X156583865Y-89252189D01*
X156672277Y-89193112D01*
X156731354Y-89153640D01*
X159650780Y-86234213D01*
X159651586Y-86233006D01*
X159653125Y-86230705D01*
X159749329Y-86086725D01*
X159749330Y-86086724D01*
X159817211Y-85922843D01*
X159851817Y-85748868D01*
X159851817Y-80710171D01*
X159871779Y-80635671D01*
X159913238Y-80589627D01*
X159993966Y-80530975D01*
X159993965Y-80530975D01*
X159993973Y-80530970D01*
X160172110Y-80352833D01*
X160320187Y-80149022D01*
X160434558Y-79924556D01*
X160512407Y-79684962D01*
X160551817Y-79436139D01*
X160551817Y-79184215D01*
X160512407Y-78935392D01*
X160434558Y-78695798D01*
X160320187Y-78471332D01*
X160172110Y-78267521D01*
X159993973Y-78089384D01*
X159790162Y-77941307D01*
X159565696Y-77826936D01*
X159326102Y-77749087D01*
X159077279Y-77709677D01*
X158825355Y-77709677D01*
X158618002Y-77742518D01*
X158576531Y-77749087D01*
X158380342Y-77812833D01*
X158336938Y-77826936D01*
X158336932Y-77826938D01*
X158336932Y-77826939D01*
X158112470Y-77941308D01*
X158112469Y-77941308D01*
X157908662Y-78089383D01*
X157908659Y-78089385D01*
X157730525Y-78267519D01*
X157730523Y-78267522D01*
X157582448Y-78471329D01*
X157582448Y-78471330D01*
X157468079Y-78695792D01*
X157468074Y-78695804D01*
X157392584Y-78928139D01*
X157390227Y-78935392D01*
X157350817Y-79184215D01*
X157350817Y-79436139D01*
X157390227Y-79684962D01*
X157468076Y-79924556D01*
X157576941Y-80138216D01*
X157582448Y-80149023D01*
X157582448Y-80149024D01*
X157598449Y-80171047D01*
X157681541Y-80285414D01*
X157730523Y-80352831D01*
X157730525Y-80352834D01*
X157908659Y-80530968D01*
X157908667Y-80530975D01*
X157989396Y-80589627D01*
X158037935Y-80649566D01*
X158050817Y-80710171D01*
X158050817Y-85225459D01*
X158030855Y-85299959D01*
X158007176Y-85330818D01*
X155827959Y-87510035D01*
X155761164Y-87548599D01*
X155722600Y-87553676D01*
X143333312Y-87553676D01*
X143258812Y-87533714D01*
X143212768Y-87492256D01*
X143207077Y-87484423D01*
X143154110Y-87411520D01*
X142975973Y-87233383D01*
X142772162Y-87085306D01*
X142547696Y-86970935D01*
X142308102Y-86893086D01*
X142059279Y-86853676D01*
X141807355Y-86853676D01*
X141737537Y-86864733D01*
X141708787Y-86869287D01*
X141632082Y-86861224D01*
X141580121Y-86827480D01*
X137210013Y-82457371D01*
X137171449Y-82390576D01*
X137168206Y-82328705D01*
X137183818Y-82230138D01*
X137183818Y-81978214D01*
X137144408Y-81729391D01*
X137066559Y-81489797D01*
X136952188Y-81265331D01*
X136804111Y-81061520D01*
X136625974Y-80883383D01*
X136545236Y-80824723D01*
X136496699Y-80764784D01*
X136483818Y-80704181D01*
X136483818Y-78967484D01*
X141540817Y-78967484D01*
X141540817Y-79144869D01*
X141565528Y-79269105D01*
X141575422Y-79318843D01*
X141609363Y-79400783D01*
X141643304Y-79482724D01*
X141702380Y-79571136D01*
X141706125Y-79576742D01*
X141706129Y-79576748D01*
X141741848Y-79630207D01*
X141741852Y-79630212D01*
X141741853Y-79630213D01*
X146567853Y-84456212D01*
X146693282Y-84581641D01*
X146840770Y-84680190D01*
X146840772Y-84680191D01*
X146840774Y-84680192D01*
X146888768Y-84700072D01*
X146888769Y-84700072D01*
X147004651Y-84748072D01*
X147178626Y-84782677D01*
X147356009Y-84782677D01*
X151709322Y-84782677D01*
X151783822Y-84802639D01*
X151829866Y-84844097D01*
X151888524Y-84924833D01*
X152066661Y-85102970D01*
X152270472Y-85251047D01*
X152494938Y-85365418D01*
X152734532Y-85443267D01*
X152983355Y-85482677D01*
X152983360Y-85482677D01*
X153235274Y-85482677D01*
X153235279Y-85482677D01*
X153484102Y-85443267D01*
X153723696Y-85365418D01*
X153948162Y-85251047D01*
X154151973Y-85102970D01*
X154330110Y-84924833D01*
X154478187Y-84721022D01*
X154592558Y-84496556D01*
X154670407Y-84256962D01*
X154709817Y-84008139D01*
X154709817Y-83756215D01*
X154670407Y-83507392D01*
X154592558Y-83267798D01*
X154478187Y-83043332D01*
X154330110Y-82839521D01*
X154151973Y-82661384D01*
X153948162Y-82513307D01*
X153723696Y-82398936D01*
X153484102Y-82321087D01*
X153235279Y-82281677D01*
X152983355Y-82281677D01*
X152776002Y-82314518D01*
X152734531Y-82321087D01*
X152520667Y-82390576D01*
X152494938Y-82398936D01*
X152494932Y-82398938D01*
X152494932Y-82398939D01*
X152270470Y-82513308D01*
X152270469Y-82513308D01*
X152066662Y-82661383D01*
X152066659Y-82661385D01*
X151888525Y-82839519D01*
X151888523Y-82839522D01*
X151829866Y-82920257D01*
X151769926Y-82968795D01*
X151709322Y-82981677D01*
X147702034Y-82981677D01*
X147627534Y-82961715D01*
X147596675Y-82938036D01*
X143385458Y-78726818D01*
X143346894Y-78660023D01*
X143341817Y-78621459D01*
X143341817Y-74918895D01*
X143361779Y-74844395D01*
X143385458Y-74813536D01*
X145111035Y-73087959D01*
X146914123Y-71284870D01*
X146980916Y-71246308D01*
X147042786Y-71243065D01*
X147141355Y-71258677D01*
X147141360Y-71258677D01*
X147393274Y-71258677D01*
X147393279Y-71258677D01*
X147642102Y-71219267D01*
X147881696Y-71141418D01*
X148106162Y-71027047D01*
X148309973Y-70878970D01*
X148488110Y-70700833D01*
X148636187Y-70497022D01*
X148750558Y-70272556D01*
X148828407Y-70032962D01*
X148867817Y-69784139D01*
X148867817Y-69532215D01*
X148828407Y-69283392D01*
X148750558Y-69043798D01*
X148636187Y-68819332D01*
X148488110Y-68615521D01*
X148309973Y-68437384D01*
X148106162Y-68289307D01*
X147881696Y-68174936D01*
X147642102Y-68097087D01*
X147393279Y-68057677D01*
X147141355Y-68057677D01*
X146934002Y-68090518D01*
X146892531Y-68097087D01*
X146652944Y-68174934D01*
X146652938Y-68174936D01*
X146652932Y-68174938D01*
X146652932Y-68174939D01*
X146428470Y-68289308D01*
X146428469Y-68289308D01*
X146224662Y-68437383D01*
X146224659Y-68437385D01*
X146046525Y-68615519D01*
X146046523Y-68615522D01*
X145898448Y-68819329D01*
X145898448Y-68819330D01*
X145898447Y-68819332D01*
X145784076Y-69043798D01*
X145706227Y-69283392D01*
X145666817Y-69532215D01*
X145666817Y-69784139D01*
X145682428Y-69882705D01*
X145674365Y-69959410D01*
X145640621Y-70011371D01*
X141741854Y-73910140D01*
X141741853Y-73910142D01*
X141702382Y-73969216D01*
X141702381Y-73969217D01*
X141643303Y-74057633D01*
X141609364Y-74139570D01*
X141575424Y-74221507D01*
X141575422Y-74221513D01*
X141540818Y-74395484D01*
X141540818Y-74395486D01*
X141540817Y-78967484D01*
X136483818Y-78967484D01*
X136483818Y-73090170D01*
X136503780Y-73015670D01*
X136545239Y-72969626D01*
X136625967Y-72910974D01*
X136625966Y-72910974D01*
X136625974Y-72910969D01*
X136804111Y-72732832D01*
X136952188Y-72529021D01*
X137066559Y-72304555D01*
X137144408Y-72064961D01*
X137183818Y-71816138D01*
X137183818Y-71564214D01*
X137168206Y-71465645D01*
X137176269Y-71388941D01*
X137210011Y-71336981D01*
X142770676Y-65776318D01*
X142837471Y-65737754D01*
X142876035Y-65732677D01*
X151658600Y-65732677D01*
X151733100Y-65752639D01*
X151763959Y-65776318D01*
X153943176Y-67955534D01*
X153981740Y-68022329D01*
X153986817Y-68060893D01*
X153986817Y-69020183D01*
X153966855Y-69094683D01*
X153925398Y-69140726D01*
X153844665Y-69199381D01*
X153844659Y-69199387D01*
X153666526Y-69377519D01*
X153666524Y-69377522D01*
X153518449Y-69581329D01*
X153518449Y-69581330D01*
X153404080Y-69805792D01*
X153404075Y-69805804D01*
X153330267Y-70032962D01*
X153326228Y-70045392D01*
X153286818Y-70294215D01*
X153286818Y-70546139D01*
X153326228Y-70794962D01*
X153404077Y-71034556D01*
X153518448Y-71259022D01*
X153666525Y-71462833D01*
X153844662Y-71640970D01*
X154048473Y-71789047D01*
X154272939Y-71903418D01*
X154512533Y-71981267D01*
X154761356Y-72020677D01*
X154761361Y-72020677D01*
X155013275Y-72020677D01*
X155013280Y-72020677D01*
X155262103Y-71981267D01*
X155501697Y-71903418D01*
X155726163Y-71789047D01*
X155929974Y-71640970D01*
X156108111Y-71462833D01*
X156256188Y-71259022D01*
X156370559Y-71034556D01*
X156448408Y-70794962D01*
X156487818Y-70546139D01*
X156487818Y-70294215D01*
X156448408Y-70045392D01*
X156370559Y-69805798D01*
X156256188Y-69581332D01*
X156108111Y-69377521D01*
X155929974Y-69199384D01*
X155929970Y-69199381D01*
X155929967Y-69199378D01*
X155849237Y-69140724D01*
X155800699Y-69080785D01*
X155787817Y-69020181D01*
X155787817Y-67537484D01*
X155753211Y-67363512D01*
X155753210Y-67363508D01*
X155685330Y-67199629D01*
X155685329Y-67199627D01*
X155586783Y-67052144D01*
X155586779Y-67052139D01*
X155461352Y-66926712D01*
X152667355Y-64132714D01*
X152667348Y-64132708D01*
X152613889Y-64096989D01*
X152613883Y-64096985D01*
X152608277Y-64093240D01*
X152519865Y-64034164D01*
X152437924Y-64000223D01*
X152355984Y-63966282D01*
X152355982Y-63966281D01*
X152355981Y-63966281D01*
X152182010Y-63931677D01*
X152182009Y-63931677D01*
X142530009Y-63931677D01*
X142352625Y-63931677D01*
X142178653Y-63966281D01*
X142178647Y-63966283D01*
X142096709Y-64000222D01*
X142096710Y-64000223D01*
X142014773Y-64034162D01*
X142014770Y-64034163D01*
X142014770Y-64034164D01*
X141926357Y-64093240D01*
X141896819Y-64112976D01*
X141867282Y-64132712D01*
X141867280Y-64132713D01*
X135936512Y-70063480D01*
X135869717Y-70102044D01*
X135807846Y-70105287D01*
X135709280Y-70089676D01*
X135457356Y-70089676D01*
X135250003Y-70122517D01*
X135208532Y-70129086D01*
X134968945Y-70206933D01*
X134968939Y-70206935D01*
X134968933Y-70206937D01*
X134968933Y-70206938D01*
X134744471Y-70321307D01*
X134744470Y-70321307D01*
X134540663Y-70469382D01*
X134540660Y-70469384D01*
X134362526Y-70647518D01*
X134362524Y-70647521D01*
X134303867Y-70728256D01*
X134243927Y-70776794D01*
X134183323Y-70789676D01*
X98664626Y-70789676D01*
X98490653Y-70824281D01*
X98490649Y-70824282D01*
X98326777Y-70892159D01*
X98326769Y-70892163D01*
X98205419Y-70973246D01*
X98205420Y-70973247D01*
X98179282Y-70990711D01*
X85861853Y-83308140D01*
X85855962Y-83316957D01*
X85850609Y-83324969D01*
X85763304Y-83455630D01*
X85741864Y-83507392D01*
X85737890Y-83516985D01*
X85737887Y-83516991D01*
X85695422Y-83619510D01*
X85695421Y-83619512D01*
X85673271Y-83730871D01*
X85666149Y-83766678D01*
X85660817Y-83793486D01*
X85660817Y-83793490D01*
X85660817Y-88390182D01*
X85640855Y-88464682D01*
X85599398Y-88510724D01*
X85518661Y-88569384D01*
X85518658Y-88569387D01*
X85340525Y-88747519D01*
X85340523Y-88747522D01*
X85192448Y-88951329D01*
X85192448Y-88951330D01*
X85078079Y-89175792D01*
X85078074Y-89175804D01*
X85000227Y-89415391D01*
X84960815Y-89664227D01*
X84960357Y-89670055D01*
X84958178Y-89669883D01*
X84940855Y-89734538D01*
X84917176Y-89765397D01*
X84006182Y-90676390D01*
X84006178Y-90676395D01*
X83896686Y-90840260D01*
X83896685Y-90840263D01*
X83821267Y-91022339D01*
X83821266Y-91022341D01*
X83782818Y-91215636D01*
X83782818Y-109338509D01*
X83762856Y-109413009D01*
X83739177Y-109443868D01*
X83562526Y-109620518D01*
X83562524Y-109620521D01*
X83414449Y-109824328D01*
X83414449Y-109824329D01*
X83300080Y-110048791D01*
X83300075Y-110048803D01*
X83226626Y-110274856D01*
X83222228Y-110288391D01*
X83182818Y-110537214D01*
X46413817Y-110537214D01*
X46413817Y-63855443D01*
X54642817Y-63855443D01*
X54642817Y-64143910D01*
X54680465Y-64429878D01*
X54680467Y-64429891D01*
X54755125Y-64708522D01*
X54755126Y-64708525D01*
X54865510Y-64975017D01*
X54865511Y-64975019D01*
X54865513Y-64975022D01*
X55009742Y-65224833D01*
X55185343Y-65453681D01*
X55389313Y-65657651D01*
X55618161Y-65833252D01*
X55867972Y-65977481D01*
X55867974Y-65977482D01*
X55867976Y-65977483D01*
X56134468Y-66087867D01*
X56134471Y-66087868D01*
X56227348Y-66112754D01*
X56413100Y-66162526D01*
X56699089Y-66200177D01*
X56987545Y-66200177D01*
X57273534Y-66162526D01*
X57552162Y-66087868D01*
X57552165Y-66087867D01*
X57818657Y-65977483D01*
X57818656Y-65977483D01*
X57818662Y-65977481D01*
X58068473Y-65833252D01*
X58297321Y-65657651D01*
X58501291Y-65453681D01*
X58676892Y-65224833D01*
X58821121Y-64975022D01*
X58931508Y-64708522D01*
X59006166Y-64429894D01*
X59043817Y-64143905D01*
X59043817Y-63855449D01*
X59006166Y-63569460D01*
X58931508Y-63290832D01*
X58931508Y-63290831D01*
X58931507Y-63290828D01*
X58821123Y-63024336D01*
X58821122Y-63024334D01*
X58821121Y-63024332D01*
X58676892Y-62774521D01*
X58501291Y-62545673D01*
X58297321Y-62341703D01*
X58068473Y-62166102D01*
X57977030Y-62113307D01*
X57818659Y-62021871D01*
X57818657Y-62021870D01*
X57552165Y-61911486D01*
X57552162Y-61911485D01*
X57273531Y-61836827D01*
X57273518Y-61836825D01*
X56987550Y-61799177D01*
X56987545Y-61799177D01*
X56699089Y-61799177D01*
X56699083Y-61799177D01*
X56413115Y-61836825D01*
X56413102Y-61836827D01*
X56134471Y-61911485D01*
X56134468Y-61911486D01*
X55867976Y-62021870D01*
X55867974Y-62021871D01*
X55618162Y-62166101D01*
X55618161Y-62166102D01*
X55389313Y-62341703D01*
X55389311Y-62341704D01*
X55389307Y-62341708D01*
X55185348Y-62545667D01*
X55009741Y-62774522D01*
X54865511Y-63024334D01*
X54865510Y-63024336D01*
X54755126Y-63290828D01*
X54755125Y-63290831D01*
X54680467Y-63569462D01*
X54680465Y-63569475D01*
X54642817Y-63855443D01*
X46413817Y-63855443D01*
X46413817Y-53822650D01*
X54242817Y-53822650D01*
X54242817Y-57286698D01*
X54242818Y-57286704D01*
X54249232Y-57368230D01*
X54249233Y-57368234D01*
X54300037Y-57557840D01*
X54300038Y-57557842D01*
X54300039Y-57557844D01*
X54389157Y-57732748D01*
X54512693Y-57885301D01*
X54665246Y-58008837D01*
X54840150Y-58097955D01*
X54840152Y-58097955D01*
X54840153Y-58097956D01*
X55029757Y-58148760D01*
X55029761Y-58148761D01*
X55111286Y-58155177D01*
X58575347Y-58155176D01*
X58656873Y-58148761D01*
X58846484Y-58097955D01*
X59021388Y-58008837D01*
X59173941Y-57885301D01*
X59297477Y-57732748D01*
X59386595Y-57557844D01*
X59437401Y-57368233D01*
X59439927Y-57336135D01*
X69808816Y-57336135D01*
X69808816Y-59628217D01*
X69841518Y-59918462D01*
X69906513Y-60203221D01*
X70002981Y-60478913D01*
X70129711Y-60742069D01*
X70285108Y-60989382D01*
X70467218Y-61217741D01*
X70673751Y-61424274D01*
X70902110Y-61606384D01*
X71149423Y-61761781D01*
X71412579Y-61888511D01*
X71688271Y-61984979D01*
X71973030Y-62049974D01*
X72263275Y-62082676D01*
X72555357Y-62082676D01*
X72845602Y-62049974D01*
X73130361Y-61984979D01*
X73406053Y-61888511D01*
X73669209Y-61761781D01*
X73916522Y-61606384D01*
X74144881Y-61424274D01*
X74351414Y-61217741D01*
X74533524Y-60989382D01*
X74533529Y-60989374D01*
X74535941Y-60985976D01*
X74536802Y-60986587D01*
X74589685Y-60937514D01*
X74664879Y-60920347D01*
X74738582Y-60943077D01*
X74781968Y-60986460D01*
X74782678Y-60985957D01*
X74785100Y-60989369D01*
X74785103Y-60989373D01*
X74785109Y-60989382D01*
X74967219Y-61217741D01*
X75173752Y-61424274D01*
X75402111Y-61606384D01*
X75649424Y-61761781D01*
X75912580Y-61888511D01*
X76188272Y-61984979D01*
X76473031Y-62049974D01*
X76763276Y-62082676D01*
X77055358Y-62082676D01*
X77345603Y-62049974D01*
X77630362Y-61984979D01*
X77906054Y-61888511D01*
X78169210Y-61761781D01*
X78416523Y-61606384D01*
X78644882Y-61424274D01*
X78851415Y-61217741D01*
X79033525Y-60989382D01*
X79033530Y-60989374D01*
X79035942Y-60985976D01*
X79036803Y-60986587D01*
X79089686Y-60937514D01*
X79164880Y-60920347D01*
X79238583Y-60943077D01*
X79281969Y-60986460D01*
X79282679Y-60985957D01*
X79285101Y-60989369D01*
X79285104Y-60989373D01*
X79285110Y-60989382D01*
X79467220Y-61217741D01*
X79673753Y-61424274D01*
X79902112Y-61606384D01*
X80149425Y-61761781D01*
X80412581Y-61888511D01*
X80688273Y-61984979D01*
X80973032Y-62049974D01*
X81263277Y-62082676D01*
X81555359Y-62082676D01*
X81845604Y-62049974D01*
X82130363Y-61984979D01*
X82406055Y-61888511D01*
X82669211Y-61761781D01*
X82916524Y-61606384D01*
X83144883Y-61424274D01*
X83351416Y-61217741D01*
X83533526Y-60989382D01*
X83688923Y-60742069D01*
X83815653Y-60478913D01*
X83912121Y-60203221D01*
X83977116Y-59918462D01*
X84009818Y-59628217D01*
X84009818Y-57336135D01*
X83977116Y-57045890D01*
X83912121Y-56761131D01*
X83815653Y-56485439D01*
X83688923Y-56222283D01*
X83533526Y-55974970D01*
X83351416Y-55746611D01*
X83144883Y-55540078D01*
X82916524Y-55357968D01*
X82669211Y-55202571D01*
X82406060Y-55075843D01*
X82406057Y-55075842D01*
X82406055Y-55075841D01*
X82130363Y-54979373D01*
X82130351Y-54979370D01*
X82130347Y-54979369D01*
X81927787Y-54933135D01*
X81845604Y-54914378D01*
X81845602Y-54914377D01*
X81845599Y-54914377D01*
X81555359Y-54881676D01*
X81263277Y-54881676D01*
X80973036Y-54914377D01*
X80688288Y-54979369D01*
X80688281Y-54979371D01*
X80688273Y-54979373D01*
X80412584Y-55075840D01*
X80412575Y-55075843D01*
X80149424Y-55202571D01*
X79902119Y-55357963D01*
X79902115Y-55357965D01*
X79902112Y-55357968D01*
X79673753Y-55540078D01*
X79673748Y-55540082D01*
X79467224Y-55746606D01*
X79285107Y-55974973D01*
X79282685Y-55978387D01*
X79281826Y-55977777D01*
X79228916Y-56026854D01*
X79153718Y-56044003D01*
X79080021Y-56021255D01*
X79036656Y-55977886D01*
X79035950Y-55978388D01*
X79033529Y-55974977D01*
X79033525Y-55974970D01*
X78851415Y-55746611D01*
X78644882Y-55540078D01*
X78416523Y-55357968D01*
X78169210Y-55202571D01*
X77906059Y-55075843D01*
X77906056Y-55075842D01*
X77906054Y-55075841D01*
X77630362Y-54979373D01*
X77630350Y-54979370D01*
X77630346Y-54979369D01*
X77427786Y-54933135D01*
X77345603Y-54914378D01*
X77345601Y-54914377D01*
X77345598Y-54914377D01*
X77055358Y-54881676D01*
X76763276Y-54881676D01*
X76473035Y-54914377D01*
X76188287Y-54979369D01*
X76188280Y-54979371D01*
X76188272Y-54979373D01*
X75912583Y-55075840D01*
X75912574Y-55075843D01*
X75649423Y-55202571D01*
X75402118Y-55357963D01*
X75402114Y-55357965D01*
X75402111Y-55357968D01*
X75173752Y-55540078D01*
X75173747Y-55540082D01*
X74967223Y-55746606D01*
X74785106Y-55974973D01*
X74782684Y-55978387D01*
X74781825Y-55977777D01*
X74728915Y-56026854D01*
X74653717Y-56044003D01*
X74580020Y-56021255D01*
X74536655Y-55977886D01*
X74535949Y-55978388D01*
X74533528Y-55974977D01*
X74533524Y-55974970D01*
X74351414Y-55746611D01*
X74144881Y-55540078D01*
X73916522Y-55357968D01*
X73669209Y-55202571D01*
X73406058Y-55075843D01*
X73406055Y-55075842D01*
X73406053Y-55075841D01*
X73130361Y-54979373D01*
X73130349Y-54979370D01*
X73130345Y-54979369D01*
X72927785Y-54933135D01*
X72845602Y-54914378D01*
X72845600Y-54914377D01*
X72845597Y-54914377D01*
X72555357Y-54881676D01*
X72263275Y-54881676D01*
X71973034Y-54914377D01*
X71688286Y-54979369D01*
X71688279Y-54979371D01*
X71688271Y-54979373D01*
X71412582Y-55075840D01*
X71412573Y-55075843D01*
X71149422Y-55202571D01*
X70902117Y-55357963D01*
X70902113Y-55357965D01*
X70902110Y-55357968D01*
X70673751Y-55540078D01*
X70673746Y-55540082D01*
X70467222Y-55746606D01*
X70467218Y-55746610D01*
X70467218Y-55746611D01*
X70285108Y-55974970D01*
X70285105Y-55974973D01*
X70285103Y-55974977D01*
X70129711Y-56222282D01*
X70002983Y-56485433D01*
X70002981Y-56485439D01*
X69906513Y-56761131D01*
X69906511Y-56761139D01*
X69906509Y-56761146D01*
X69841517Y-57045894D01*
X69814386Y-57286698D01*
X69808816Y-57336135D01*
X59439927Y-57336135D01*
X59443817Y-57286708D01*
X59443816Y-53822647D01*
X59437401Y-53741121D01*
X59386595Y-53551510D01*
X59297477Y-53376606D01*
X59173941Y-53224053D01*
X59021388Y-53100517D01*
X58846484Y-53011399D01*
X58846482Y-53011398D01*
X58846480Y-53011397D01*
X58656872Y-52960592D01*
X58602969Y-52956350D01*
X58575348Y-52954177D01*
X58575342Y-52954177D01*
X55111295Y-52954177D01*
X55111289Y-52954177D01*
X55111287Y-52954178D01*
X55098459Y-52955187D01*
X55029763Y-52960592D01*
X55029759Y-52960593D01*
X54840153Y-53011397D01*
X54840150Y-53011399D01*
X54665244Y-53100518D01*
X54512693Y-53224053D01*
X54389158Y-53376604D01*
X54300039Y-53551510D01*
X54300037Y-53551513D01*
X54249232Y-53741121D01*
X54242817Y-53822650D01*
X46413817Y-53822650D01*
X46413817Y-52519677D01*
X46433779Y-52445177D01*
X46488317Y-52390639D01*
X46562817Y-52370677D01*
X167199817Y-52370677D01*
X167274317Y-52390639D01*
G37*
%TD.AperFunction*%
%TD*%
M02*
